<svg xmlns="http://www.w3.org/2000/svg" version="1.0" viewBox="0 0 666 666"><path fill="#BFBFBF" fill-opacity=".1" d="M114.9 138.7c-1.3 1.6-1.2 1.7.4.4s2.1-2.1 1.3-2.1c-.2 0-1 .8-1.7 1.7M297 142c0 .5.5 1 1.1 1 .5 0 .7-.5.4-1-.3-.6-.8-1-1.1-1-.2 0-.4.4-.4 1m154.2 9c0 1.4.2 1.9.5 1.2.2-.6.2-1.8 0-2.5-.3-.6-.5-.1-.5 1.3m-149.7 28.9c-.3.5-.1 1.2.5 1.6.5.3 1-.1 1-.9 0-1.8-.6-2.1-1.5-.7m-31.3 2.6c0 1.6.2 2.2.5 1.2.2-.9.2-2.3 0-3-.3-.6-.5.1-.5 1.8m-195.1 6.1c0 1.1.3 1.4.6.6.3-.7.2-1.6-.1-1.9-.3-.4-.6.2-.5 1.3m298.7 11.1c.7.3 1.6.2 1.9-.1.4-.3-.2-.6-1.3-.5-1.1 0-1.4.3-.6.6m26 7c.7.3 1.6.2 1.9-.1.4-.3-.2-.6-1.3-.5-1.1 0-1.4.3-.6.6m-282 33c.6.2 1.8.2 2.5 0 .6-.3.1-.5-1.3-.5s-1.9.2-1.2.5m190.1 3-2.4 2.8 2.8-2.4c2.5-2.3 3.2-3.1 2.4-3.1-.2 0-1.4 1.2-2.8 2.7m21.2 19.9c0 1.1.3 1.4.6.6.3-.7.2-1.6-.1-1.9-.3-.4-.6.2-.5 1.3m23.1 7.4c0 1.9.2 2.7.5 1.7.2-.9.2-2.5 0-3.5-.3-.9-.5-.1-.5 1.8m119.6 3.7c.7.3 1.6.2 1.9-.1.4-.3-.2-.6-1.3-.5-1.1 0-1.4.3-.6.6m14.1 5c-1.3 1.6-1.2 1.7.4.4s2.1-2.1 1.3-2.1c-.2 0-1 .8-1.7 1.7m-241.8 1.9c0 1.1.3 1.4.6.6.3-.7.2-1.6-.1-1.9-.3-.4-.6.2-.5 1.3m252.7 19.1c.7.3 1.6.2 1.9-.1.4-.3-.2-.6-1.3-.5-1.1 0-1.4.3-.6.6m-210 9c.7.3 1.6.2 1.9-.1.4-.3-.2-.6-1.3-.5-1.1 0-1.4.3-.6.6m160.5 3c.9.2 2.3.2 3 0 .6-.3-.1-.5-1.8-.5-1.6 0-2.2.2-1.2.5m13.5 1c.7.3 1.6.2 1.9-.1.4-.3-.2-.6-1.3-.5-1.1 0-1.4.3-.6.6m128.4 17.8c0 1.6.2 2.2.5 1.2.2-.9.2-2.3 0-3-.3-.6-.5.1-.5 1.8m-41.3 13.2c-1.3 1.6-1.2 1.7.4.4s2.1-2.1 1.3-2.1c-.2 0-1 .8-1.7 1.7m-185 10c-1.3 1.6-1.2 1.7.4.4.9-.7 1.7-1.5 1.7-1.7 0-.8-.8-.3-2.1 1.3m-101 3c-1.3 1.6-1.2 1.7.4.4s2.1-2.1 1.3-2.1c-.2 0-1 .8-1.7 1.7m-25.8 17.9c0 1.1.3 1.4.6.6.3-.7.2-1.6-.1-1.9-.3-.4-.6.2-.5 1.3m-32.9 2.4c0 1.4.2 1.9.5 1.2.2-.6.2-1.8 0-2.5-.3-.6-.5-.1-.5 1.3m-11.1 3.6c0 1.1.3 1.4.6.6.3-.7.2-1.6-.1-1.9-.3-.4-.6.2-.5 1.3M534.2 395c0 1.4.2 1.9.5 1.2.2-.6.2-1.8 0-2.5-.3-.6-.5-.1-.5 1.3m-193.1 1.6c0 1.1.3 1.4.6.6.3-.7.2-1.6-.1-1.9-.3-.4-.6.2-.5 1.3m-196.3 4.1c.7.3 1.6.2 1.9-.1.4-.3-.2-.6-1.3-.5-1.1 0-1.4.3-.6.6m174 18c.7.3 1.6.2 1.9-.1.4-.3-.2-.6-1.3-.5-1.1 0-1.4.3-.6.6m-54.4 20.5-1.9 2.3 2.3-1.9c2.1-1.8 2.7-2.6 1.9-2.6-.2 0-1.2 1-2.3 2.2M33.9 457.7c-1.3 1.6-1.2 1.7.4.4.9-.7 1.7-1.5 1.7-1.7 0-.8-.8-.3-2.1 1.3m490.3 14.8c0 1.6.2 2.2.5 1.2.2-.9.2-2.3 0-3-.3-.6-.5.1-.5 1.8m-348.1 14.1c0 1.1.3 1.4.6.6.3-.7.2-1.6-.1-1.9-.3-.4-.6.2-.5 1.3m24.1 9.4c0 1.4.2 1.9.5 1.2.2-.6.2-1.8 0-2.5-.3-.6-.5-.1-.5 1.3m11.6 16.7c.7.3 1.6.2 1.9-.1.4-.3-.2-.6-1.3-.5-1.1 0-1.4.3-.6.6m-125 56c.7.3 1.6.2 1.9-.1.4-.3-.2-.6-1.3-.5-1.1 0-1.4.3-.6.6M286 584.4c0 .2.8 1 1.8 1.7 1.5 1.3 1.6 1.2.3-.4s-2.1-2.1-2.1-1.3"/><path fill="#BFBFBF" fill-opacity=".2" d="M197.2 150c0 1.4.2 1.9.5 1.2.2-.6.2-1.8 0-2.5-.3-.6-.5-.1-.5 1.3M81.1 184.6c0 1.1.3 1.4.6.6.3-.7.2-1.6-.1-1.9-.3-.4-.6.2-.5 1.3m0 4c0 1.1.3 1.4.6.6.3-.7.2-1.6-.1-1.9-.3-.4-.6.2-.5 1.3m289.7 11.1c.7.3 1.6.2 1.9-.1.4-.3-.2-.6-1.3-.5-1.1 0-1.4.3-.6.6m-53.7 9.9c0 1.1.3 1.4.6.6.3-.7.2-1.6-.1-1.9-.3-.4-.6.2-.5 1.3m-141.8 61.9c0 2.7.2 3.8.4 2.2.2-1.5.2-3.7 0-5-.2-1.2-.4 0-.4 2.8m68.8 6.1c0 1.1.3 1.4.6.6.3-.7.2-1.6-.1-1.9-.3-.4-.6.2-.5 1.3m-68 10c0 1.1.3 1.4.6.6.3-.7.2-1.6-.1-1.9-.3-.4-.6.2-.5 1.3m327 6c0 1.1.3 1.4.6.6.3-.7.2-1.6-.1-1.9-.3-.4-.6.2-.5 1.3M340 315.4c0 .2.8 1 1.8 1.7 1.5 1.3 1.6 1.2.3-.4s-2.1-2.1-2.1-1.3M314 328c0 .5.5 1 1.1 1 .5 0 .7-.5.4-1-.3-.6-.8-1-1.1-1-.2 0-.4.4-.4 1m261.8 13.7c.7.3 1.6.2 1.9-.1.4-.3-.2-.6-1.3-.5-1.1 0-1.4.3-.6.6m-438 13c.7.3 1.6.2 1.9-.1.4-.3-.2-.6-1.3-.5-1.1 0-1.4.3-.6.6m257.1 11c-1.3 1.6-1.2 1.7.4.4.9-.7 1.7-1.5 1.7-1.7 0-.8-.8-.3-2.1 1.3m-58.5 1.5-1.9 2.3 2.3-1.9c2.1-1.8 2.7-2.6 1.9-2.6-.2 0-1.2 1-2.3 2.2m-128.3 9.4c0 1.1.3 1.4.6.6.3-.7.2-1.6-.1-1.9-.3-.4-.6.2-.5 1.3m.1 5.4c0 1.4.2 1.9.5 1.2.2-.6.2-1.8 0-2.5-.3-.6-.5-.1-.5 1.3m27.9.6c0 1.1.3 1.4.6.6.3-.7.2-1.6-.1-1.9-.3-.4-.6.2-.5 1.3m56.8 13.1c-1.3 1.6-1.2 1.7.4.4s2.1-2.1 1.3-2.1c-.2 0-1 .8-1.7 1.7m-27.6 12c.9.2 2.3.2 3 0 .6-.3-.1-.5-1.8-.5-1.6 0-2.2.2-1.2.5m50.5 3c.6.2 1.8.2 2.5 0 .6-.3.1-.5-1.3-.5s-1.9.2-1.2.5M581.2 421c0 1.4.2 1.9.5 1.2.2-.6.2-1.8 0-2.5-.3-.6-.5-.1-.5 1.3m-508.9 8.7c.9.2 2.3.2 3 0 .6-.3-.1-.5-1.8-.5-1.6 0-2.2.2-1.2.5m32.7 5.7c0 .2.8 1 1.8 1.7 1.5 1.3 1.6 1.2.3-.4s-2.1-2.1-2.1-1.3m484.6 3.9c.3 1 .9 1.5 1.2 1.2s0-1.1-.7-1.8c-1-.9-1.1-.8-.5.6M149 440.4c0 .2.8 1 1.8 1.7 1.5 1.3 1.6 1.2.3-.4s-2.1-2.1-2.1-1.3m389.1 4.2c0 1.1.3 1.4.6.6.3-.7.2-1.6-.1-1.9-.3-.4-.6.2-.5 1.3m22.7 10.1c.6.2 1.8.2 2.5 0 .6-.3.1-.5-1.3-.5s-1.9.2-1.2.5m-36.7 13.9c0 1.1.3 1.4.6.6.3-.7.2-1.6-.1-1.9-.3-.4-.6.2-.5 1.3m-348 23c0 1.1.3 1.4.6.6.3-.7.2-1.6-.1-1.9-.3-.4-.6.2-.5 1.3M15.3 503c0 2.5.2 3.5.4 2.2.2-1.2.2-3.2 0-4.5-.2-1.2-.4-.2-.4 2.3m567.7 9.4c0 .2.8 1 1.8 1.7 1.5 1.3 1.6 1.2.3-.4s-2.1-2.1-2.1-1.3m23.8 4.3c.7.3 1.6.2 1.9-.1.4-.3-.2-.6-1.3-.5-1.1 0-1.4.3-.6.6m-371 4c.7.3 1.6.2 1.9-.1.4-.3-.2-.6-1.3-.5-1.1 0-1.4.3-.6.6m213.5 10.8c-.3.9-.3 1.8-.1 2.1.3.3.8-.4 1.1-1.6.6-2.3-.1-2.7-1-.5m-227 7.2c1.5.2 3.9.2 5.5 0 1.5-.2.2-.4-2.8-.4s-4.3.2-2.7.4M515 581.1c0 .5.5.7 1 .4.6-.3 1-.8 1-1.1 0-.2-.4-.4-1-.4-.5 0-1 .5-1 1.1m-14.2 1.6c.7.3 1.6.2 1.9-.1.4-.3-.2-.6-1.3-.5-1.1 0-1.4.3-.6.6m-4 4c.7.3 1.6.2 1.9-.1.4-.3-.2-.6-1.3-.5-1.1 0-1.4.3-.6.6"/><path fill="#BFBFBF" fill-opacity=".3" d="M166.8 116.7c.7.3 1.6.2 1.9-.1.4-.3-.2-.6-1.3-.5-1.1 0-1.4.3-.6.6m161 0c1.2.2 3.2.2 4.5 0 1.2-.2.2-.4-2.3-.4s-3.5.2-2.2.4m26.3 3.9c0 1.1.3 1.4.6.6.3-.7.2-1.6-.1-1.9-.3-.4-.6.2-.5 1.3m-156.9 24.9c0 1.6.2 2.2.5 1.2.2-.9.2-2.3 0-3-.3-.6-.5.1-.5 1.8m131.6 11.2c.7.3 1.6.2 1.9-.1.4-.3-.2-.6-1.3-.5-1.1 0-1.4.3-.6.6m-94 137c.7.3 1.6.2 1.9-.1.4-.3-.2-.6-1.3-.5-1.1 0-1.4.3-.6.6m221 19c.7.3 1.6.2 1.9-.1.4-.3-.2-.6-1.3-.5-1.1 0-1.4.3-.6.6m-357.5 1c.9.2 2.3.2 3 0 .6-.3-.1-.5-1.8-.5-1.6 0-2.2.2-1.2.5m49.5 24c.6.2 1.8.2 2.5 0 .6-.3.1-.5-1.3-.5s-1.9.2-1.2.5m173.1 4c-1.3 1.6-1.2 1.7.4.4.9-.7 1.7-1.5 1.7-1.7 0-.8-.8-.3-2.1 1.3m51 19c-1.3 1.6-1.2 1.7.4.4s2.1-2.1 1.3-2.1c-.2 0-1 .8-1.7 1.7m-65.7 6.3c0 1.4.2 1.9.5 1.2.2-.6.2-1.8 0-2.5-.3-.6-.5-.1-.5 1.3m-18.4 50.7c1.2.2 3.2.2 4.5 0 1.2-.2.2-.4-2.3-.4s-3.5.2-2.2.4m-217 7c.7.3 1.6.2 1.9-.1.4-.3-.2-.6-1.3-.5-1.1 0-1.4.3-.6.6m488 39c.6.2 1.8.2 2.5 0 .6-.3.1-.5-1.3-.5s-1.9.2-1.2.5M48.4 476.2l-1.9 2.3 2.3-1.9c2.1-1.8 2.7-2.6 1.9-2.6-.2 0-1.2 1-2.3 2.2m475.7.4c0 1.1.3 1.4.6.6.3-.7.2-1.6-.1-1.9-.3-.4-.6.2-.5 1.3m-18.9 1.9c0 1.6.2 2.2.5 1.2.2-.9.2-2.3 0-3-.3-.6-.5.1-.5 1.8m-319.3 1.2c-1.3 1.6-1.2 1.7.4.4.9-.7 1.7-1.5 1.7-1.7 0-.8-.8-.3-2.1 1.3m350.9 11c.7.3 1.6.2 1.9-.1.4-.3-.2-.6-1.3-.5-1.1 0-1.4.3-.6.6m-200 2c.7.3 1.6.2 1.9-.1.4-.3-.2-.6-1.3-.5-1.1 0-1.4.3-.6.6m269 14c.7.3 1.6.2 1.9-.1.4-.3-.2-.6-1.3-.5-1.1 0-1.4.3-.6.6m-5 10c.7.3 1.6.2 1.9-.1.4-.3-.2-.6-1.3-.5-1.1 0-1.4.3-.6.6m-374 4c.6.2 1.8.2 2.5 0 .6-.3.1-.5-1.3-.5s-1.9.2-1.2.5m5 0c.6.2 1.8.2 2.5 0 .6-.3.1-.5-1.3-.5s-1.9.2-1.2.5m375 2c.7.3 1.6.2 1.9-.1.4-.3-.2-.6-1.3-.5-1.1 0-1.4.3-.6.6m-384 4c.6.2 1.8.2 2.5 0 .6-.3.1-.5-1.3-.5s-1.9.2-1.2.5m86.6 10.5-1.9 2.3 2.3-1.9c1.2-1.1 2.2-2.1 2.2-2.3 0-.8-.8-.2-2.6 1.9"/><path fill="#BF8080" fill-opacity=".5" d="M166.5 136c1 1.1 2 2 2.3 2s-.3-.9-1.3-2-2-2-2.3-2 .3.9 1.3 2m4.7 13.5c0 1.6.2 2.2.5 1.2.2-.9.2-2.3 0-3-.3-.6-.5.1-.5 1.8M315 158c-.9.6-1 1-.3 1 .6 0 1.5-.5 1.8-1 .8-1.2.4-1.2-1.5 0m-13.9 16.6c0 1.1.3 1.4.6.6.3-.7.2-1.6-.1-1.9-.3-.4-.6.2-.5 1.3m31.7 2.1c.6.2 1.8.2 2.5 0 .6-.3.1-.5-1.3-.5s-1.9.2-1.2.5m66 6c.6.2 1.8.2 2.5 0 .6-.3.1-.5-1.3-.5s-1.9.2-1.2.5m-67.9 17c-1.3 1.6-1.2 1.7.4.4s2.1-2.1 1.3-2.1c-.2 0-1 .8-1.7 1.7m172.2 50.9c0 1.1.3 1.4.6.6.3-.7.2-1.6-.1-1.9-.3-.4-.6.2-.5 1.3M250.2 311c0 1.4.2 1.9.5 1.2.2-.6.2-1.8 0-2.5-.3-.6-.5-.1-.5 1.3m184.6.7c.6.2 1.8.2 2.5 0 .6-.3.1-.5-1.3-.5s-1.9.2-1.2.5M392 332.4c0 .2.7.7 1.6 1 .8.3 1.2.2.9-.4-.6-1-2.5-1.4-2.5-.6m-192.4 25.4c-.3.5.1.9.9.9s1.2-.4.9-.9c-.3-.4-.7-.8-.9-.8s-.6.4-.9.8M104.2 384c0 1.4.2 1.9.5 1.2.2-.6.2-1.8 0-2.5-.3-.6-.5-.1-.5 1.3m99 1c0 1.4.2 1.9.5 1.2.2-.6.2-1.8 0-2.5-.3-.6-.5-.1-.5 1.3m-123 2c0 1.4.2 1.9.5 1.2.2-.6.2-1.8 0-2.5-.3-.6-.5-.1-.5 1.3m192.6 7.7c.7.3 1.6.2 1.9-.1.4-.3-.2-.6-1.3-.5-1.1 0-1.4.3-.6.6M538 406.4c0 .2.8 1 1.8 1.7 1.5 1.3 1.6 1.2.3-.4s-2.1-2.1-2.1-1.3m19.8 18.3c.7.3 1.6.2 1.9-.1.4-.3-.2-.6-1.3-.5-1.1 0-1.4.3-.6.6M188.2 429c0 1.9.2 2.7.5 1.7.2-.9.2-2.5 0-3.5-.3-.9-.5-.1-.5 1.8m71.7 15.7c-1.3 1.6-1.2 1.7.4.4s2.1-2.1 1.3-2.1c-.2 0-1 .8-1.7 1.7m394.2 30.9c0 1.1.3 1.4.6.6.3-.7.2-1.6-.1-1.9-.3-.4-.6.2-.5 1.3M149.2 495c0 1.4.2 1.9.5 1.2.2-.6.2-1.8 0-2.5-.3-.6-.5-.1-.5 1.3m-44.8 16.2-1.9 2.3 2.3-1.9c2.1-1.8 2.7-2.6 1.9-2.6-.2 0-1.2 1-2.3 2.2m-19.6 8.5c.6.2 1.8.2 2.5 0 .6-.3.1-.5-1.3-.5s-1.9.2-1.2.5M495 536.4c0 .2.8 1 1.8 1.7 1.5 1.3 1.6 1.2.3-.4s-2.1-2.1-2.1-1.3m41.1 3.2c0 1.1.3 1.4.6.6.3-.7.2-1.6-.1-1.9-.3-.4-.6.2-.5 1.3m-262 16c0 1.1.3 1.4.6.6.3-.7.2-1.6-.1-1.9-.3-.4-.6.2-.5 1.3m100.7.1c.7.3 1.6.2 1.9-.1.4-.3-.2-.6-1.3-.5-1.1 0-1.4.3-.6.6M56.7 576.1c.7.7 1.5 1 1.8.7s-.2-.9-1.2-1.2c-1.4-.6-1.5-.5-.6.5"/><path fill="#BF8080" fill-opacity=".6" d="M320.8 87.7c1.2.2 3 .2 4 0 .9-.3-.1-.5-2.3-.4-2.2 0-3 .2-1.7.4m-3 47c.7.3 1.6.2 1.9-.1.4-.3-.2-.6-1.3-.5-1.1 0-1.4.3-.6.6m-221.2 2.1c-.3.5.1.9.9.9s1.2-.4.9-.9c-.3-.4-.7-.8-.9-.8s-.6.4-.9.8m412.5 11.8c0 1.1.3 1.4.6.6.3-.7.2-1.6-.1-1.9-.3-.4-.6.2-.5 1.3m-8 7c0 1.1.3 1.4.6.6.3-.7.2-1.6-.1-1.9-.3-.4-.6.2-.5 1.3m8.1 2.4c0 1.4.2 1.9.5 1.2.2-.6.2-1.8 0-2.5-.3-.6-.5-.1-.5 1.3m-339.1 9.6c0 1.1.3 1.4.6.6.3-.7.2-1.6-.1-1.9-.3-.4-.6.2-.5 1.3m269.8.1c-1.3 1.6-1.2 1.7.4.4s2.1-2.1 1.3-2.1c-.2 0-1 .8-1.7 1.7m4.1 2.3c-.6 1.1-.8 2-.6 2 .3 0 1-.9 1.6-2s.8-2 .6-2c-.3 0-1 .9-1.6 2m-161.2-.3c.6.2 1.8.2 2.5 0 .6-.3.1-.5-1.3-.5s-1.9.2-1.2.5m18.9 6.2c-.4 1.7-.3 2.1.5 1.3.5-.5.8-1.6.6-2.3-.3-.8-.7-.3-1.1 1m135.7 1.3-1.9 2.3 2.3-1.9c2.1-1.8 2.7-2.6 1.9-2.6-.2 0-1.2 1-2.3 2.2m-102.6 3.5c.7.3 1.6.2 1.9-.1.4-.3-.2-.6-1.3-.5-1.1 0-1.4.3-.6.6m-15.2 3c-.6 1.4-.5 1.5.5.6.7-.7 1-1.5.7-1.8s-.9.2-1.2 1.2m89.2-1c.7.3 1.6.2 1.9-.1.4-.3-.2-.6-1.3-.5-1.1 0-1.4.3-.6.6m-10 6c.7.3 1.6.2 1.9-.1.4-.3-.2-.6-1.3-.5-1.1 0-1.4.3-.6.6m-64.2 16c-.6 1.4-.5 1.5.5.6.7-.7 1-1.5.7-1.8s-.9.2-1.2 1.2m-64.8 3c.7.3 1.6.2 1.9-.1.4-.3-.2-.6-1.3-.5-1.1 0-1.4.3-.6.6m10.3 8.9c0 1.1.3 1.4.6.6.3-.7.2-1.6-.1-1.9-.3-.4-.6.2-.5 1.3m-160.8 6.1c.9.2 2.3.2 3 0 .6-.3-.1-.5-1.8-.5-1.6 0-2.2.2-1.2.5m39.8 1.9c0 1.1.3 1.4.6.6.3-.7.2-1.6-.1-1.9-.3-.4-.6.2-.5 1.3m145.8 13.1c-1.3 1.6-1.2 1.7.4.4s2.1-2.1 1.3-2.1c-.2 0-1 .8-1.7 1.7m-149.7 12.8c0 1.6.2 2.2.5 1.2.2-.9.2-2.3 0-3-.3-.6-.5.1-.5 1.8m305.9 10.1c0 1.1.3 1.4.6.6.3-.7.2-1.6-.1-1.9-.3-.4-.6.2-.5 1.3m-154.2 2.1c-1.3 1.6-1.2 1.7.4.4s2.1-2.1 1.3-2.1c-.2 0-1 .8-1.7 1.7m108.3 6.8c0 1.6.2 2.2.5 1.2.2-.9.2-2.3 0-3-.3-.6-.5.1-.5 1.8m14.7-.8c-1.3 1.6-1.2 1.7.4.4s2.1-2.1 1.3-2.1c-.2 0-1 .8-1.7 1.7m-139.8 3.9c0 1.1.3 1.4.6.6.3-.7.2-1.6-.1-1.9-.3-.4-.6.2-.5 1.3m178.7 2.1c.7.3 1.6.2 1.9-.1.4-.3-.2-.6-1.3-.5-1.1 0-1.4.3-.6.6M154.2 277c0 1.4.2 1.9.5 1.2.2-.6.2-1.8 0-2.5-.3-.6-.5-.1-.5 1.3m334.9 13.6c0 1.1.3 1.4.6.6.3-.7.2-1.6-.1-1.9-.3-.4-.6.2-.5 1.3m-27.3.1c.6.2 1.8.2 2.5 0 .6-.3.1-.5-1.3-.5s-1.9.2-1.2.5m35 5c.7.3 1.6.2 1.9-.1.4-.3-.2-.6-1.3-.5-1.1 0-1.4.3-.6.6m-84.5 16c.9.2 2.3.2 3 0 .6-.3-.1-.5-1.8-.5-1.6 0-2.2.2-1.2.5m18.5 0c.6.2 1.8.2 2.5 0 .6-.3.1-.5-1.3-.5s-1.9.2-1.2.5m-106 2c.6.2 1.8.2 2.5 0 .6-.3.1-.5-1.3-.5s-1.9.2-1.2.5m11.2 3.7c0 .2.8 1 1.8 1.7 1.5 1.3 1.6 1.2.3-.4s-2.1-2.1-2.1-1.3m74.8 3.3c.6.2 1.8.2 2.5 0 .6-.3.1-.5-1.3-.5s-1.9.2-1.2.5m20.5 0c.9.2 2.3.2 3 0 .6-.3-.1-.5-1.8-.5-1.6 0-2.2.2-1.2.5m51.5 2c.6.2 1.8.2 2.5 0 .6-.3.1-.5-1.3-.5s-1.9.2-1.2.5m-166.9 3c-1.3 1.6-1.2 1.7.4.4s2.1-2.1 1.3-2.1c-.2 0-1 .8-1.7 1.7m79.7 6.1c-.3.5.1.9.9.9s1.2-.4.9-.9c-.3-.4-.7-.8-.9-.8s-.6.4-.9.8m-39.7 1.9c-1.3 1.6-1.2 1.7.4.4s2.1-2.1 1.3-2.1c-.2 0-1 .8-1.7 1.7m-148.6 2c.9.2 2.3.2 3 0 .6-.3-.1-.5-1.8-.5-1.6 0-2.2.2-1.2.5m137.9 1.3c0 1.4.2 1.9.5 1.2.2-.6.2-1.8 0-2.5-.3-.6-.5-.1-.5 1.3m36.3-1c-.3.6.1.7.9.4 1.8-.7 2.1-1.4.7-1.4-.6 0-1.3.4-1.6 1m-309.5.4c0 .2.8 1 1.8 1.7 1.5 1.3 1.6 1.2.3-.4s-2.1-2.1-2.1-1.3m365.8 2.3c.6.2 1.8.2 2.5 0 .6-.3.1-.5-1.3-.5s-1.9.2-1.2.5m-203.2 10c-.6 1.4-.5 1.5.5.6.7-.7 1-1.5.7-1.8s-.9.2-1.2 1.2m332.3 1c-1.3 1.6-1.2 1.7.4.4.9-.7 1.7-1.5 1.7-1.7 0-.8-.8-.3-2.1 1.3m-306 7c-1.3 1.6-1.2 1.7.4.4s2.1-2.1 1.3-2.1c-.2 0-1 .8-1.7 1.7m61.6 15.3c.3.5.8 1 1.1 1 .2 0 .4-.5.4-1 0-.6-.5-1-1.1-1-.5 0-.7.4-.4 1m-17.3 3c0 1.4.2 1.9.5 1.2.2-.6.2-1.8 0-2.5-.3-.6-.5-.1-.5 1.3m-136.1.6c0 1.1.3 1.4.6.6.3-.7.2-1.6-.1-1.9-.3-.4-.6.2-.5 1.3m290 17c0 1.1.3 1.4.6.6.3-.7.2-1.6-.1-1.9-.3-.4-.6.2-.5 1.3m-98 1c0 1.1.3 1.4.6.6.3-.7.2-1.6-.1-1.9-.3-.4-.6.2-.5 1.3m-60 1c0 1.1.3 1.4.6.6.3-.7.2-1.6-.1-1.9-.3-.4-.6.2-.5 1.3m-10.7 2.6-1.9 2.3 2.3-1.9c2.1-1.8 2.7-2.6 1.9-2.6-.2 0-1.2 1-2.3 2.2m-110.5 10.5c-1.3 1.6-1.2 1.7.4.4.9-.7 1.7-1.5 1.7-1.7 0-.8-.8-.3-2.1 1.3m-167.6 2.8c0 .8.4 1.2.9.9s.6-1 .3-1.5c-.9-1.3-1.2-1.1-1.2.6m181.6 2.2c-1.3 1.6-1.2 1.7.4.4.9-.7 1.7-1.5 1.7-1.7 0-.8-.8-.3-2.1 1.3m145 1c-1.3 1.6-1.2 1.7.4.4.9-.7 1.7-1.5 1.7-1.7 0-.8-.8-.3-2.1 1.3m52.4 10c.9.2 2.3.2 3 0 .6-.3-.1-.5-1.8-.5-1.6 0-2.2.2-1.2.5M139 432.4c0 .2.8 1 1.8 1.7 1.5 1.3 1.6 1.2.3-.4s-2.1-2.1-2.1-1.3m207.2 4.6c0 1.4.2 1.9.5 1.2.2-.6.2-1.8 0-2.5-.3-.6-.5-.1-.5 1.3m177.7-.3c-1.3 1.6-1.2 1.7.4.4.9-.7 1.7-1.5 1.7-1.7 0-.8-.8-.3-2.1 1.3m-259 3c-1.3 1.6-1.2 1.7.4.4s2.1-2.1 1.3-2.1c-.2 0-1 .8-1.7 1.7m51.8 2c-1 .9-.9 2.3.1 2.3.5 0 .9-.7.9-1.5 0-1.7-.1-1.8-1-.8m286.1 1c.6.2 1.8.2 2.5 0 .6-.3.1-.5-1.3-.5s-1.9.2-1.2.5m-567.9 15c-1.3 1.6-1.2 1.7.4.4.9-.7 1.7-1.5 1.7-1.7 0-.8-.8-.3-2.1 1.3m97.1 1.7c0 .2.8 1 1.8 1.7 1.5 1.3 1.6 1.2.3-.4s-2.1-2.1-2.1-1.3m-61.2 9.3c.7.3 1.6.2 1.9-.1.4-.3-.2-.6-1.3-.5-1.1 0-1.4.3-.6.6m583.3 3.9c0 1.1.3 1.4.6.6.3-.7.2-1.6-.1-1.9-.3-.4-.6.2-.5 1.3m-347.2 10.1c-1.3 1.6-1.2 1.7.4.4s2.1-2.1 1.3-2.1c-.2 0-1 .8-1.7 1.7m245 2c-1.3 1.6-1.2 1.7.4.4.9-.7 1.7-1.5 1.7-1.7 0-.8-.8-.3-2.1 1.3m-203 2-2.4 2.8 2.8-2.4c2.5-2.3 3.2-3.1 2.4-3.1-.2 0-1.4 1.2-2.8 2.7m157.2-1.1c0 1.1.3 1.4.6.6.3-.7.2-1.6-.1-1.9-.3-.4-.6.2-.5 1.3m86.1 5.4c0 1.4.2 1.9.5 1.2.2-.6.2-1.8 0-2.5-.3-.6-.5-.1-.5 1.3M266 492.4c0 .2.8 1 1.8 1.7 1.5 1.3 1.6 1.2.3-.4s-2.1-2.1-2.1-1.3m382.5.7c-.4.6-.5 1.2-.2 1.5.2.3.7-.2 1-1.1.7-1.7.1-2-.8-.4m-92.6 3.6c-1.3 1.6-1.2 1.7.4.4s2.1-2.1 1.3-2.1c-.2 0-1 .8-1.7 1.7m-354.8 4.9c0 1.1.3 1.4.6.6.3-.7.2-1.6-.1-1.9-.3-.4-.6.2-.5 1.3m125.2 8.1c.9.2 2.3.2 3 0 .6-.3-.1-.5-1.8-.5-1.6 0-2.2.2-1.2.5m135.8 2.9c0 1.1.3 1.4.6.6.3-.7.2-1.6-.1-1.9-.3-.4-.6.2-.5 1.3m-445 5c0 1.1.3 1.4.6.6.3-.7.2-1.6-.1-1.9-.3-.4-.6.2-.5 1.3m226.7 4.1c.7.3 1.6.2 1.9-.1.4-.3-.2-.6-1.3-.5-1.1 0-1.4.3-.6.6m-29 5c.6.2 1.8.2 2.5 0 .6-.3.1-.5-1.3-.5s-1.9.2-1.2.5m18 13c.7.3 1.6.2 1.9-.1.4-.3-.2-.6-1.3-.5-1.1 0-1.4.3-.6.6m123.7 5.4c-1.1 1.6-.1 1.9 1.3.3.7-.8.8-1.4.3-1.4s-1.3.5-1.6 1.1m-136.2.6c1.5.2 3.7.2 5 0 1.2-.2 0-.4-2.8-.4-2.7 0-3.8.2-2.2.4m-9.5 1c.7.3 1.6.2 1.9-.1.4-.3-.2-.6-1.3-.5-1.1 0-1.4.3-.6.6m44.2 1.7c0 .2.8 1 1.8 1.7 1.5 1.3 1.6 1.2.3-.4s-2.1-2.1-2.1-1.3m-173.7 3.3c.9.2 2.3.2 3 0 .6-.3-.1-.5-1.8-.5-1.6 0-2.2.2-1.2.5m6.5 0c.7.3 1.6.2 1.9-.1.4-.3-.2-.6-1.3-.5-1.1 0-1.4.3-.6.6m186.3.9c0 1.1.3 1.4.6.6.3-.7.2-1.6-.1-1.9-.3-.4-.6.2-.5 1.3m-9.6 12.3c-.3.5-.2 1.2.3 1.5s.9-.1.9-.9c0-1.7-.3-1.9-1.2-.6m-181.7 2.8c.7.3 1.6.2 1.9-.1.4-.3-.2-.6-1.3-.5-1.1 0-1.4.3-.6.6m-3.5 12c1.5.2 3.7.2 5 0 1.2-.2 0-.4-2.8-.4-2.7 0-3.8.2-2.2.4m207.7 4.7c0 .2.8 1 1.8 1.7 1.5 1.3 1.6 1.2.3-.4s-2.1-2.1-2.1-1.3m20.8 7.3c.7.3 1.6.2 1.9-.1.4-.3-.2-.6-1.3-.5-1.1 0-1.4.3-.6.6"/><path fill="#BFBF80" fill-opacity=".4" d="M277.9 108.7c-1.3 1.6-1.2 1.7.4.4s2.1-2.1 1.3-2.1c-.2 0-1 .8-1.7 1.7m46.9 21c.6.2 1.8.2 2.5 0 .6-.3.1-.5-1.3-.5s-1.9.2-1.2.5m-2 5c.6.2 1.8.2 2.5 0 .6-.3.1-.5-1.3-.5s-1.9.2-1.2.5m-151.7 18.9c0 1.1.3 1.4.6.6.3-.7.2-1.6-.1-1.9-.3-.4-.6.2-.5 1.3m224.7 35.1c.7.3 1.6.2 1.9-.1.4-.3-.2-.6-1.3-.5-1.1 0-1.4.3-.6.6m-220.7 90.9c0 1.1.3 1.4.6.6.3-.7.2-1.6-.1-1.9-.3-.4-.6.2-.5 1.3m-73.3 29.1c.7.3 1.6.2 1.9-.1.4-.3-.2-.6-1.3-.5-1.1 0-1.4.3-.6.6m337 3c.6.2 1.8.2 2.5 0 .6-.3.1-.5-1.3-.5s-1.9.2-1.2.5m-23.5 9c.9.2 2.5.2 3.5 0 .9-.3.1-.5-1.8-.5s-2.7.2-1.7.5m7 0c.9.2 2.3.2 3 0 .6-.3-.1-.5-1.8-.5-1.6 0-2.2.2-1.2.5m-344.5 19c.7.3 1.6.2 1.9-.1.4-.3-.2-.6-1.3-.5-1.1 0-1.4.3-.6.6m146.4 38.8c0 1.6.2 2.2.5 1.2.2-.9.2-2.3 0-3-.3-.6-.5.1-.5 1.8m64.7 8.2c-1.3 1.6-1.2 1.7.4.4.9-.7 1.7-1.5 1.7-1.7 0-.8-.8-.3-2.1 1.3m-208.8 7.9c0 1.1.3 1.4.6.6.3-.7.2-1.6-.1-1.9-.3-.4-.6.2-.5 1.3m240.7 5.1c.6.2 1.8.2 2.5 0 .6-.3.1-.5-1.3-.5s-1.9.2-1.2.5m274 1c.7.3 1.6.2 1.9-.1.4-.3-.2-.6-1.3-.5-1.1 0-1.4.3-.6.6M119 447.4c0 .2.8 1 1.8 1.7 1.5 1.3 1.6 1.2.3-.4s-2.1-2.1-2.1-1.3m-17 8c0 .2.8 1 1.8 1.7 1.5 1.3 1.6 1.2.3-.4s-2.1-2.1-2.1-1.3m452.8 8.3c.6.2 1.8.2 2.5 0 .6-.3.1-.5-1.3-.5s-1.9.2-1.2.5m-488.5 5c.9.2 2.3.2 3 0 .6-.3-.1-.5-1.8-.5-1.6 0-2.2.2-1.2.5m157.5 27c.7.3 1.6.2 1.9-.1.4-.3-.2-.6-1.3-.5-1.1 0-1.4.3-.6.6m9.1 7c-1.3 1.6-1.2 1.7.4.4.9-.7 1.7-1.5 1.7-1.7 0-.8-.8-.3-2.1 1.3m-149.5 3.5-1.9 2.3 2.3-1.9c2.1-1.8 2.7-2.6 1.9-2.6-.2 0-1.2 1-2.3 2.2m185.9 5.5c.9.2 2.3.2 3 0 .6-.3-.1-.5-1.8-.5-1.6 0-2.2.2-1.2.5"/><path fill="#BFBF80" fill-opacity=".5" d="M330.8 180.7c.7.3 1.6.2 1.9-.1.4-.3-.2-.6-1.3-.5-1.1 0-1.4.3-.6.6m96 140c.6.2 1.8.2 2.5 0 .6-.3.1-.5-1.3-.5s-1.9.2-1.2.5m-285.5 17c.9.2 2.3.2 3 0 .6-.3-.1-.5-1.8-.5-1.6 0-2.2.2-1.2.5"/><path fill="#BF8080" fill-opacity=".7" d="M188.5 124c1 1.1 2 2 2.3 2s-.3-.9-1.3-2-2-2-2.3-2 .3.9 1.3 2m-31.7 8.7c.6.2 1.8.2 2.5 0 .6-.3.1-.5-1.3-.5s-1.9.2-1.2.5M509.2 153c0 1.9.2 2.7.5 1.7.2-.9.2-2.5 0-3.5-.3-.9-.5-.1-.5 1.8m-405.3-.3c-1.3 1.6-1.2 1.7.4.4s2.1-2.1 1.3-2.1c-.2 0-1 .8-1.7 1.7m162 4c-1.3 1.6-1.2 1.7.4.4s2.1-2.1 1.3-2.1c-.2 0-1 .8-1.7 1.7m218.6 8.4c-.4.6-.5 1.2-.2 1.5.2.3.7-.2 1-1.1.7-1.7.1-2-.8-.4m-209.6 7.6c-1.3 1.6-1.2 1.7.4.4s2.1-2.1 1.3-2.1c-.2 0-1 .8-1.7 1.7m158 2c-1.3 1.6-1.2 1.7.4.4s2.1-2.1 1.3-2.1c-.2 0-1 .8-1.7 1.7m-30.6 14c.9.2 2.3.2 3 0 .6-.3-.1-.5-1.8-.5-1.6 0-2.2.2-1.2.5m-122.5 4c.6.2 1.8.2 2.5 0 .6-.3.1-.5-1.3-.5s-1.9.2-1.2.5m42.1 6c-1.3 1.6-1.2 1.7.4.4s2.1-2.1 1.3-2.1c-.2 0-1 .8-1.7 1.7m7.3 6.3c0 1.4.2 1.9.5 1.2.2-.6.2-1.8 0-2.5-.3-.6-.5-.1-.5 1.3m-193.3 10.7c-1.3 1.6-1.2 1.7.4.4.9-.7 1.7-1.5 1.7-1.7 0-.8-.8-.3-2.1 1.3m346 8c-1.3 1.6-1.2 1.7.4.4s2.1-2.1 1.3-2.1c-.2 0-1 .8-1.7 1.7m-302.8 7.9c0 1.1.3 1.4.6.6.3-.7.2-1.6-.1-1.9-.3-.4-.6.2-.5 1.3M154.2 262c0 1.9.2 2.7.5 1.7.2-.9.2-2.5 0-3.5-.3-.9-.5-.1-.5 1.8m126.2 4.2-1.9 2.3 2.3-1.9c2.1-1.8 2.7-2.6 1.9-2.6-.2 0-1.2 1-2.3 2.2m183.6 5.2c0 .2.8 1 1.8 1.7 1.5 1.3 1.6 1.2.3-.4s-2.1-2.1-2.1-1.3m-71.1 4.3c-1.3 1.6-1.2 1.7.4.4s2.1-2.1 1.3-2.1c-.2 0-1 .8-1.7 1.7m-237.8 9.9c0 1.1.3 1.4.6.6.3-.7.2-1.6-.1-1.9-.3-.4-.6.2-.5 1.3m115.8 20.1c-1.3 1.6-1.2 1.7.4.4.9-.7 1.7-1.5 1.7-1.7 0-.8-.8-.3-2.1 1.3m-24.7 4.8c0 1.6.2 2.2.5 1.2.2-.9.2-2.3 0-3-.3-.6-.5.1-.5 1.8m-134.4-.8c.7.3 1.6.2 1.9-.1.4-.3-.2-.6-1.3-.5-1.1 0-1.4.3-.6.6m305.5 2c.9.2 2.3.2 3 0 .6-.3-.1-.5-1.8-.5-1.6 0-2.2.2-1.2.5m9 0c.9.2 2.3.2 3 0 .6-.3-.1-.5-1.8-.5-1.6 0-2.2.2-1.2.5m-340.5 3c.7.3 1.6.2 1.9-.1.4-.3-.2-.6-1.3-.5-1.1 0-1.4.3-.6.6m350 6c.7.3 1.6.2 1.9-.1.4-.3-.2-.6-1.3-.5-1.1 0-1.4.3-.6.6m28 2c1.2.2 3.2.2 4.5 0 1.2-.2.2-.4-2.3-.4s-3.5.2-2.2.4m-142.5 1c.9.2 2.3.2 3 0 .6-.3-.1-.5-1.8-.5-1.6 0-2.2.2-1.2.5m-83.4 3c-1.3 1.6-1.2 1.7.4.4s2.1-2.1 1.3-2.1c-.2 0-1 .8-1.7 1.7m337.4 2c.9.2 2.5.2 3.5 0 .9-.3.1-.5-1.8-.5s-2.7.2-1.7.5M68.2 331c0 1.4.2 1.9.5 1.2.2-.6.2-1.8 0-2.5-.3-.6-.5-.1-.5 1.3m135.6 4.7c.7.3 1.6.2 1.9-.1.4-.3-.2-.6-1.3-.5-1.1 0-1.4.3-.6.6m29.7 13.4c-.4.6-.5 1.2-.2 1.5.2.3.7-.2 1-1.1.7-1.7.1-2-.8-.4m125.9 3.1-1.9 2.3 2.3-1.9c1.2-1.1 2.2-2.1 2.2-2.3 0-.8-.8-.2-2.6 1.9m92.7.4c0 1.1.3 1.4.6.6.3-.7.2-1.6-.1-1.9-.3-.4-.6.2-.5 1.3m83.8 4.1c-1.3 1.6-1.2 1.7.4.4.9-.7 1.7-1.5 1.7-1.7 0-.8-.8-.3-2.1 1.3M200 359c0 .5.5 1 1.1 1 .5 0 .7-.5.4-1-.3-.6-.8-1-1.1-1-.2 0-.4.4-.4 1m98.1 9.6c0 1.1.3 1.4.6.6.3-.7.2-1.6-.1-1.9-.3-.4-.6.2-.5 1.3m252.7 44.1c.7.3 1.6.2 1.9-.1.4-.3-.2-.6-1.3-.5-1.1 0-1.4.3-.6.6m-170.5 2c.9.2 2.3.2 3 0 .6-.3-.1-.5-1.8-.5-1.6 0-2.2.2-1.2.5m223.8 2.9c0 1.1.3 1.4.6.6.3-.7.2-1.6-.1-1.9-.3-.4-.6.2-.5 1.3M18 419.4c0 .2.8 1 1.8 1.7 1.5 1.3 1.6 1.2.3-.4s-2.1-2.1-2.1-1.3m302.8 3.3c.7.3 1.6.2 1.9-.1.4-.3-.2-.6-1.3-.5-1.1 0-1.4.3-.6.6m-226.8.7c0 .2.8 1 1.8 1.7 1.5 1.3 1.6 1.2.3-.4s-2.1-2.1-2.1-1.3m-54.7 6.3c.9.2 2.5.2 3.5 0 .9-.3.1-.5-1.8-.5s-2.7.2-1.7.5m25.5 14c.7.3 1.6.2 1.9-.1.4-.3-.2-.6-1.3-.5-1.1 0-1.4.3-.6.6m59.2 7.8c1.3 1.4 2.6 2.5 2.8 2.5.3 0-.5-1.1-1.8-2.5s-2.6-2.5-2.8-2.5c-.3 0 .5 1.1 1.8 2.5m153.9 19.2c-1.3 1.6-1.2 1.7.4.4s2.1-2.1 1.3-2.1c-.2 0-1 .8-1.7 1.7m228.2.9c0 1.1.3 1.4.6.6.3-.7.2-1.6-.1-1.9-.3-.4-.6.2-.5 1.3M183 474c-.6 1.1-.8 2-.6 2 .3 0 1-.9 1.6-2s.8-2 .6-2c-.3 0-1 .9-1.6 2m4.9 2.7-2.4 2.8 2.8-2.4c2.5-2.3 3.2-3.1 2.4-3.1-.2 0-1.4 1.2-2.8 2.7m-143 2c-1.3 1.6-1.2 1.7.4.4.9-.7 1.7-1.5 1.7-1.7 0-.8-.8-.3-2.1 1.3m230.9 2c.7.3 1.6.2 1.9-.1.4-.3-.2-.6-1.3-.5-1.1 0-1.4.3-.6.6m56.3.9c0 1.1.3 1.4.6.6.3-.7.2-1.6-.1-1.9-.3-.4-.6.2-.5 1.3m-241.9 6.9c0 1.6.2 2.2.5 1.2.2-.9.2-2.3 0-3-.3-.6-.5.1-.5 1.8m492.1 20c0 .8.4 1.2.9.9s.6-1 .3-1.5c-.9-1.3-1.2-1.1-1.2.6m-362.5 13.2c.6.2 1.8.2 2.5 0 .6-.3.1-.5-1.3-.5s-1.9.2-1.2.5m46.7 16.3c1 1.1 2 2 2.3 2s-.3-.9-1.3-2-2-2-2.3-2 .3.9 1.3 2m-117.6 7.7c-1.3 1.6-1.2 1.7.4.4s2.1-2.1 1.3-2.1c-.2 0-1 .8-1.7 1.7m364.9 0c.7.3 1.6.2 1.9-.1.4-.3-.2-.6-1.3-.5-1.1 0-1.4.3-.6.6M388 552c-.9.6-1 1-.3 1 .6 0 1.5-.5 1.8-1 .8-1.2.4-1.2-1.5 0m89 6.4c0 .2.8 1 1.8 1.7 1.5 1.3 1.6 1.2.3-.4s-2.1-2.1-2.1-1.3M74.8 579.7c.7.3 1.6.2 1.9-.1.4-.3-.2-.6-1.3-.5-1.1 0-1.4.3-.6.6m12 0c.6.2 1.8.2 2.5 0 .6-.3.1-.5-1.3-.5s-1.9.2-1.2.5"/><g fill="#BF8080" stroke-width="0"><path d="M311.5 89.4c-5.5 1.7-15.6 6.7-17.5 8.6-.3.3-1.7 1.1-3.2 1.9-1.6.8-4.8 3.4-7.3 5.7-2.5 2.4-4.5 4-4.5 3.6s-.5.1-1.1 1.1c-.5.9-.7 2.2-.3 2.9.5.7.3.8-.5.4-1.2-.8-7.9 5.5-13.1 12.2-1.4 1.8-3.2 4.1-4.1 5-3.3 3.5-10.8 14.5-10.4 15.2.3.5-.1 1-.9 1.3-.7.3-2.5 2.5-3.8 4.9-11.6 20.1-13.8 24.1-13.8 25.4 0 .8-.4 1.4-.8 1.4-1 0-17.2 33.7-17.2 35.8 0 .5-.9 2.7-2 4.9-6 11.7-24.3 64-27 77-.8 3.9-1.8 6.3-2.6 6.3-1.8 0-2.4-1.2-4.5-9.4-1.5-5.8-1.8-10.4-1.7-24.6.1-9.6.5-18 .8-18.5.4-.6 1-3.7 1.4-6.9.4-3.3 1.8-11.6 3.2-18.4s2.3-13 2-13.8c-.3-.9-.1-1.2.4-.9.6.3 1 .1 1-.4 0-.6-.4-1.1-1-1.1-.5 0-1-.5-1-1.1s.7-.9 1.5-.5c1.1.4 1.5-.2 1.7-2.2.2-4 .3-4.6 1-5.8.4-.6 1-2.6 1.2-4.5.3-1.9 1.1-5.7 1.9-8.4 5.1-17.4 8.1-35.8 7.4-44.3-.7-6.8-3.3-13.6-5-12.5-.6.4-.7.1-.3-.6.5-.7 0-2.1-1.1-3.3-2.8-3.2-9.2-7-10.5-6.2-.6.4-.8.3-.5-.3.8-1.2-1.6-1.6-11.5-1.6-8.8 0-12.8.5-14.8 1.8-.8.6-2.7 1-4.1 1.1-3 0-19.9 8.1-19.9 9.4 0 .6-.7 1-1.5 1-.9 0-2.9 1.3-4.4 2.9-1.6 1.6-3.2 2.7-3.5 2.4s-1.1.6-1.7 2.1c-.7 1.4-1.7 2.6-2.3 2.6s-2.9 2.3-5.1 5c-2.2 2.8-4.7 5.8-5.6 6.8-2.9 3.2-5.6 8.7-5.2 10.7.3 1.4.1 1.6-.5.7-.9-1.3-2.4 3.9-4.7 16.1-2.2 12.2 2.1 27.3 9.7 34.3 5.3 4.8 7.9 6.1 14.4 6.6 9.4.9 16.6-2.9 22-11.4 1.3-2.1 2.4-4 2.4-4.3s-2.2-.5-5-.5c-6 0-9.6-1.5-13.5-5.6-5.1-5.3-6.8-11.9-6.3-23.8.4-8.9.9-11.1 3.6-16.7 1.7-3.5 4.7-8.1 6.6-10.1 2-2.2 2.9-3.9 2.3-4.2-.8-.3-.7-.5.2-.5.7-.1 3.4-1.6 6-3.5 4.7-3.4 13.1-8 13.1-7.2 0 .3 1.7-.1 3.8-.8 4.1-1.4 12.2-.1 13 2.2.2.7.9.9 1.5.5.7-.3.9-.3.5.2-.4.4-.1 1.7.7 2.9.8 1.1 1.5 3.3 1.5 4.8 0 1.6.5 2.8 1.1 2.8.5 0 .8.4.5.8-.3.5-.6 4.1-.7 8.1-.2 8.1-2.3 21.3-7 44.1-1.7 8.5-4 20.2-5 26-1.1 5.8-2.5 13.2-3.1 16.5s-1.2 15-1.2 26c-.1 17.2.2 20.8 1.8 25.4 2.6 7.4 7.7 16 12.3 20.5 3.5 3.5 15 10.2 15.9 9.3.2-.2.8-2.8 1.4-5.8 1.2-6.5 6.5-24.6 9.1-30.9 1-2.5 3.4-9 5.5-14.5 2-5.5 5.4-14.1 7.7-19 4.8-10.7 20-41.8 20.7-42.5.3-.3 2.9-4.7 5.9-9.8 7.3-12.8 20.1-32 24.1-36.2 4.7-4.9 7.9-9.9 6.7-10.3q-1.2-.6.3-.6c.8-.1 5.3-4 10.1-8.9 8.6-8.8 16.9-16.3 16.9-15.4 0 .3.8-.2 1.8-1 3.2-2.8 14.7-8.5 20.2-10.1 3-.8 8.4-1.7 12-1.8 7.7-.2 17.2 1 16.4 2.2-.2.5.6 1.1 1.9 1.4 1.4.4 3 1.9 3.7 3.3.7 1.6 1.4 2.2 1.7 1.4.3-.6.9-.9 1.5-.6 2 1.3.3-10.9-2.4-16.7-2.8-6.1-10.1-13.8-15.8-16.6-4.3-2.2-17.8-2.7-23.5-.9M290 106c0 .5-.5 1-1.1 1-.5 0-.7-.5-.4-1 .3-.6.8-1 1.1-1 .2 0 .4.4.4 1m60.5 10c.3.5-.1 1-.9 1-.9 0-1.6-.5-1.6-1 0-.6.4-1 .9-1 .6 0 1.3.4 1.6 1M112 216c0 .5-.4 1-1 1-.5 0-1-.5-1-1 0-.6.5-1 1-1 .6 0 1 .4 1 1m50 26c0 .5-.4 1-1 1-.5 0-1-.5-1-1 0-.6.5-1 1-1 .6 0 1 .4 1 1m22.4 64.6c.3.8.2 1.2-.4.9s-1-1-1-1.6c0-1.4.7-1.1 1.4.7m-10.7 7c-.3.3-1.2.4-1.9.1-.8-.3-.5-.6.6-.6 1.1-.1 1.7.2 1.3.5m3.8 2.4c.3.5-.3 1-1.5 1s-1.8-.5-1.5-1c.3-.6 1-1 1.5-1s1.2.4 1.5 1"/><path d="M321.5 130.5c-.5.2-3.4 1.1-6.4 2-2.9.9-6 2.3-6.8 3.1s-2.1 1.4-2.8 1.4c-.8 0-1.6.4-1.9.9s2.4-.2 6.2-1.5c9.4-3.3 19.2-3.3 25.5 0 3.6 2 4.8 2.2 5.6 1.2 3.1-3.7-12.3-9.4-19.4-7.1m10.2 1.1c-.3.3-1.2.4-1.9.1-.8-.3-.5-.6.6-.6 1.1-.1 1.7.2 1.3.5m6.8 3.4c1 1.1 1.5 2 1.1 2s-1.6-.9-2.8-2-1.7-2-1.1-2c.5 0 1.8.9 2.8 2m154.3 1.7c-1 .2-1.8.9-1.8 1.4s-.9.9-1.9.9c-3.7 0-10 7.5-17 20.4-1.7 3.2-3.3 6.5-3.5 7.5-.1.9-1.4 4.1-2.9 7.2-4.3 9.1-12.9 36.3-11.9 37.4.4.3.2.9-.4 1.3-1.4.8-4.7 14.8-6.9 28.7-1.3 7.6-2.3 10.8-4.3 13.5-1.4 1.9-3 3.6-3.4 3.8s-.8.9-.8 1.5c-.1 1.8-6.9 8.9-11.5 12-7.8 5.3-12.3 2.7-11.1-6.3 1.5-11.4 14.4-45.3 20.4-53.8 1.2-1.6 1.8-3.3 1.4-3.7-.4-.5-.1-.5.6-.1.6.4 1.2.2 1.2-.3 0-.6.8-1.1 1.8-1.1 1.4 0 1.5-.2.2-1-.8-.5-3.8-1-6.5-1-6.6 0-13.2 3.3-16.4 8.2-1.3 2.1-3 3.8-3.6 3.8-.7 0-2.4-1.8-3.8-3.9-1.8-2.7-3.8-4.3-6-4.9-3.5-1-13.7-.4-13.7.7 0 .4-1.6 1.3-3.6 2-5.4 2-20.2 17.2-24.2 25.1-5 9.5-7.9 17.8-9.1 25.8-1.4 9.1-1.4 12.5 0 11.6.7-.4.9 0 .5 1.3-1.1 3.4 4 12.3 7 12.3.7 0 1.4.7 1.8 1.5.4 1.1 2 1.5 5.7 1.5 7.3 0 14.1-3.7 21.8-11.8l6.5-6.7.9 6c.5 3.8 1.8 7.2 3.3 9.2 2.2 3 3 3.3 7.5 3.3 3.3 0 6.6-.8 9.7-2.4 4.8-2.4 15-11.8 20.8-19.1 3.5-4.4 5.4-4.1 5.4.9 0 4.8 2.6 11.6 5.8 14.9 3.8 4 7.4 5.7 12.2 5.7 4.6 0 13.8-3.9 12-5-.9-.6-.9-.9 0-1.5.7-.4 1.6-.1 2.1.6.5.8.9 1.1 1 .6.1-.4.3-1.2.4-1.7.1-.6.3-1.3.4-1.8.1-.4.5-.1 1 .6 1.9 3.1 23.1-25.3 23.1-30.8-.1-4.9-1.9-3.8-8.1 4.7-3.5 4.8-7 9.4-7.9 10.3-4.8 4.7-8.5 6.9-13 7.9-8.8 1.9-11.7-1-12.7-12.9l-.5-6.5 5.6-8c10.7-15.4 18.6-27.4 19.3-29.2.3-1 1-2 1.3-2.3 1.7-1.2 4.9-9.1 4.4-10.7-.5-1.4-.4-1.5.4-.4s1.6.3 3.6-3.8c1.5-2.8 2.4-5.7 2-6.4s-.3-.9.1-.4c.9.8 7.2-14.8 7.9-19.3.2-1.4.8-3.8 1.5-5.3.6-1.6.8-3.3.5-3.8-.3-.6-.1-1.5.4-2.2.6-.7 1-4.6 1-8.7.1-8.1-2.5-15.5-5.6-16.4-3.2-.9-8.7-1.4-10.4-.9m8.6 14.2c1.2 8-2.3 24.5-8.5 39.3-5.1 12.3-15.5 31.6-20.5 38.2-2.1 2.8-2.1 3.1-.6 4.2 1.4 1 1.5 1.5.4 2.6s-1.2 1-.9-.2c.2-.8.2-1.2 0-.7-.3.4-.9.4-1.5.1-.6-.4-.5.2.1 1.5 1.5 2.7-1.2 7.1-4.2 7.1-2.1 0-2.1 0 .1-1.6 2.2-1.5 3-4.4 1.2-4.4-.5 0-1 .4-1 1 0 .5-.5 1-1.1 1s-.9-2.5-.7-6.9c.2-3.8.5-6.7.7-6.5.3.3 1.5-3.9 2.7-9.3 3.8-16.2 12.9-42.7 19.4-55.9 4.8-10 7.6-13.4 11.1-13.4 2.3 0 2.7.5 3.3 3.9m-97.6 68.7c2.8.8 5.2 5.2 5.2 9.6 0 2.7-1.8 10.3-4.4 18.3-.9 3-5.1 11.1-6.2 12.3-.8.7-1.4 1.7-1.4 2.1 0 1.5-7.5 8.8-10.7 10.5-5.6 2.8-12.9 1.3-13.8-2.8-.8-4.1-1.3-14.5-.7-15.1.3-.3 1.4-3 2.3-6 1.2-4 1.4-5.7.5-6.6-.8-.9-.7-1.1.5-.6 1.2.4 2.3-.7 4-4 4.7-9.1 14.8-18.2 20.4-18.2 1.1-.1 3 .2 4.3.5m73.2 8.9c0 .9-.6 1.2-1.6.8-1.3-.5-1.3-.7-.2-1.4 1.7-1.1 1.8-1.1 1.8.6m15.8 38.6c-1.6 1-3.3-.5-2.3-2.1.5-.8 1.1-.8 2.1.1 1.2 1 1.2 1.4.2 2M90.6 145c-11 14.9-15.9 32.7-13.7 49.5 1.3 9.1 5.2 20.1 7 19.7.7-.1 1 .2.6.8-1.7 2.8 14 19.5 17.3 18.3 1.1-.5 1.3-.3.7.7s-.4 1.2.8.7c1-.3 1.7-.3 1.7.2 0 1.3 5.6 3.3 8.2 2.9 1.8-.3 1.3-.7-2.7-2.1-6.9-2.3-15.7-9.6-20.2-16.5-2.1-3.1-4.2-6-4.7-6.4-.5-.3-1-1.7-1.2-3-.1-1.2-.9-4.8-1.8-7.8-1.7-5.6-2.1-28.7-.6-32s5.3-14.6 5.3-16.2c.1-.9.4-1.5.8-1.3.3.3 1.9-1.9 3.4-4.8s3.5-6 4.3-7c1-1.1 1.1-1.7.4-1.7s-3.2 2.7-5.6 6"/><path d="M448.6 153.2c-2.9 10-10.9 19.9-19.7 24.3-2.5 1.3-8.3 3.1-12.9 4.1-17.2 3.5-35-.3-56-12-9-5-11.8-6.1-12.9-5.2-1.1.8-1.3.8-.8-.1 1.7-2.8-11.3-7.3-21-7.3-5.3 0-13.2 2.4-12 3.7.4.3 5.3.7 10.9.7 9.4.1 10.9.4 17.1 3.3 3.7 1.8 6.7 2.8 6.7 2.4 0-.5 1.1-.6 2.5-.3 1.4.2 2.5.9 2.5 1.4 0 .6.6.8 1.4.5 1.8-.7 3.4 1.2 3.1 3.6-.3 1.3 1.3 2.6 5.7 4.7 3.3 1.6 6.5 3.3 7.2 3.9 1.8 1.5 10.6 4.2 18.1 5.7 8 1.6 21.3 1.8 26.5.5 1.9-.5 4.8-1.2 6.4-1.6 2.4-.5 2.7-.8 1.5-1.7-1-.7-.8-.8 1.1-.4 3.4.7 11.8-4.3 17.4-10.5 4.7-5.2 8.3-13.1 9.3-20.5.8-6-.2-5.5-2.1.8M326 159.1c0 .5-.4.8-.9.5s-3-.2-5.5.3c-5 .9-5.9.6-2.3-.9 3.1-1.2 8.7-1.2 8.7.1m84.5 26.9c.3.5-.3 1-1.4 1-1.2 0-2.1-.5-2.1-1 0-.6.6-1 1.4-1s1.8.4 2.1 1m-99.6-25.3c-.1.4-.1 1.1 0 1.5 0 .5-.7.8-1.6.8-2 0-5.7 5.1-6.7 9-.5 1.8-.1 1.5 1.3-1.1 1.1-1.9 3.6-4.6 5.5-6 2-1.3 3.6-2.7 3.6-3.1 0-1-2-2.1-2.1-1.1"/><path d="M351 170c3 2.2 5 3.1 5 2.2 0-.6-.8-1.2-1.7-1.6-1-.3-2.5-.9-3.3-1.2-1.3-.5-1.3-.4 0 .6m-75.7 3.7c-4.1 4.3-4.9 8.2-2.7 12.8 1.8 4 4.6 5.5 9.8 5.5 3.5 0 9-3.5 8-5.1-.3-.5.1-1.2.9-1.5.9-.3 1.8-1.7 2.2-3.1.7-3.1-.3-8.5-1.6-7.8-.5.4-.6-.2-.2-1.1.5-1.4.3-1.6-1.1-1.1-.9.4-1.5.3-1.1-.2.8-1.3-2.6-2.2-7.2-1.9-2.8.1-4.6 1-7 3.5m2.2 4.3c-.3.5-1.1 1-1.6 1-.6 0-.7-.5-.4-1 .3-.6 1.1-1 1.6-1 .6 0 .7.4.4 1m51.5.5c0 1.1 1.2 1.5 4.6 1.5 5.2 0 10.6 2.5 17 8 7.3 6.2 14.5 9.9 20.4 10.5 4.5.4 5.1.3 3-.6-8.4-3.6-13.3-6.6-20-11.9-4.1-3.3-8.1-5.8-8.8-5.5s-1.1.1-.8-.4c.9-1.4-5.1-3.1-10.5-3.1-3.7 0-4.9.4-4.9 1.5m9.3.2c-.7.2-2.1.2-3 0-1-.3-.4-.5 1.2-.5 1.7 0 2.4.2 1.8.5m28.7 17.6c1.3.5 1.3.6-.1.6-.8.1-2.4-.6-3.5-1.5-1.9-1.5-1.9-1.5.1-.6 1.1.5 2.7 1.2 3.5 1.5M325.5 179c-1.2.4-2.7 1.5-3.4 2.4-1.2 1.4-1.2 1.6.3 1 .9-.3 1.6-1.1 1.6-1.6 0-.6.7-.8 1.5-.5.8.4 1.7.2 2.1-.4q1.35-2.25-2.1-.9m1.9 15.2c-1.6 1.1-4.3 4-6 6.2-2.8 3.9-2.9 4.5-2.7 13.8l.2 9.7-8.7 9.2c-4.8 5-8.8 9.5-9 9.9s.5 1.1 1.5 1.4c1.3.5 3.6-1.3 9.4-7.4 4.2-4.4 8.3-8 9-8 2.1 0 8.1 21.7 8.7 31.2.4 6.4.1 8.4-1.7 12-2.7 5.6-6.9 8.2-13.4 7.9-6.4-.2-9.3-2.4-10-7.5-1-7.4 3.1-13.2 9.6-13.8l3.8-.3-3-3.1c-3.8-3.9-10.2-4.5-15.3-1.4-3.6 2.2-5.3 2.6-4.3 1 .7-1.2-.3-5-1.4-5-.4 0-2.9 3.1-5.5 7-5.2 7.5-14.7 16.9-17.4 17.1-3.5.2-6.7-.3-7-1.2-.2-.5-.7-.7-1.1-.4-.5.2-.5-1.3-.1-3.5s.5-4 .2-4c-.2 0 0-.6.5-1.3.6-.6 1.3-2.6 1.7-4.2.4-1.7 3.1-8.6 6.1-15.5 8.8-20.8 10-26.6 6.7-32.6-1.4-2.5-8.1-4.2-9.2-2.4-.6.9-.9.9-1.2 0-.5-1.5-4.5.3-6.5 2.9-.7.9-1.3 1.2-1.3.6 0-1.4-8 6.6-9.7 9.9l-1.5 2.9 3.7-2.3c3.1-1.9 4-2.1 6.2-1.1 2.4 1.1 2.5 1.5 1.9 5.7-.3 2.5-3.1 11-6.1 18.9-5.5 14.2-9.5 27.8-9.5 32 0 2.7 1.9 8.5 2.8 8.4 2-.3 3.2.2 3.2 1.4 0 1.4 1.1 1.7 7.4 1.7 6.9 0 18.3-8.2 28.4-20.5 2.8-3.4 4.2-2.2 4.2 3.7 0 2.6 1 4.9 3.3 7.9 5.1 6.8 8.7 8.4 19.4 8.6 11.5.3 17.6-1.9 24.6-8.9 9.5-9.5 11-19.4 5.6-35.5-1.8-5.1-3.5-9-3.9-8.8-.5.3-.6-.4-.3-1.5.3-1.2-.1-2.2-1.1-2.6-.9-.3-1.6-1.5-1.6-2.6 0-1-.6-3.1-1.4-4.6-2.8-5.4-3-9.8-.7-13.1 3-4.1 6.1-11.2 6.1-13.9 0-5.7-7.9-8.1-13.6-4m8.6 7.1c0 3.5-3.3 8.1-5.3 7.4-1.7-.5-2-4.5-.7-7.8.9-2.1 1.9-2.9 3.6-2.9 2 0 2.4.5 2.4 3.3m1 80.1c0 1.1-1.9 1.5-2.5.6-.3-.5.1-1 .9-1 .9 0 1.6.2 1.6.4m-218.7-42.7c.9.2 2.5.2 3.5 0 .9-.3.1-.5-1.8-.5s-2.7.2-1.7.5m378.1 42.2c-4.3 2.6-6.4 5.9-6.4 10.1 0 2.3.3 3 .9 2.2.7-1.1 1-1 1.5.3.3.9.4 2 .1 2.4-.2.5.7 1.3 2.2 2 2.1.9 3 .9 4.9-.4 3.2-2.1 3-2.6-.6-1.9-4.2.9-6-1-6-6.2 0-5.1 2-6.7 8.4-6.6 6.1 0 7.6.4 7.6 1.9 0 .7.4 1.3.8 1.3 1.4 0 3.2 4.8 3.2 8.6 0 4.1-1.8 8-5.3 11.3-6.4 5.9-26.9 9-47.7 7.2-26.7-2.4-62.8-.9-69.8 2.8-1 .6-2.1.8-2.4.6-1.5-1.5-21.6 9-28.4 14.9-7.5 6.5-8.1 6.5-9.9.1-2.1-7-6.4-12.8-12.3-16.5-4-2.5-5.6-2.9-11.2-2.9l-6.5.1 5.7.9c3.2.4 6.8 1.3 8 2 3.2 1.6 8.8 7.1 8.8 8.5 0 .7.5 1.6 1.2 2 .8.5.9.2.5-.9-.4-1-.2-1.7.4-1.7.7 0 .9.9.6 2.1s-.1 4.6.4 7.6c1.7 9.2-2.3 22.7-8.9 29.6-2.5 2.6-3.8 5.7-2.3 5.7 1.2 0 7.7-7.3 10.4-11.5 1.3-2.3 3.3-6.7 4.3-9.9 1.6-5 2.6-6.5 6.9-9.6 10.3-7.7 22.1-12.3 38.6-15 11.3-1.9 15.3-2.1 32.2-1.6 55.6 1.8 59.2 1.8 64.7.6 16.3-3.6 26.3-13.5 26.2-25.8-.1-11.9-11.7-19.9-20.8-14.3m11.1 31.1c.3.5.1 1-.4 1-.6 0-1.1-.5-1.1-1 0-.6.2-1 .4-1 .3 0 .8.4 1.1 1m-278.2-16.1c-1.8 1.1-4 3.2-4.9 4.7-2.2 3.2-2.3 9.2-.3 10.5.7.5 1 .9.4.9-1.9.1 4 4 6.1 4 1.1 0 2.8-.8 3.7-1.8 2.3-2.5 2.1-3.5-.3-2-1.7 1.1-2.5 1-4.8-.2-2.4-1.4-2.7-2.2-2.7-6.4 0-4.1.4-5.2 2.5-6.8 3.4-2.5 10.2-1.5 14.2 2.1 5.1 4.5 4.7 15.5-.7 21.9-1.3 1.6-2.1 3.2-1.7 3.6s0 .6-.8.4-1.4.3-1.2 1c.1.8-.2 1.1-.7.7-.6-.3-2.7.5-4.8 1.8-2.3 1.5-7.6 3.1-13.6 4.2-8.8 1.7-10.8 1.7-20.4.6-11.2-1.4-22.5-4.2-33.3-8.3-3.6-1.4-7.2-2.3-8-2s-1.2.1-.7-.4c1.2-1.3-25.9-10.9-37.8-13.4-6.5-1.4-24-1.9-29.1-.8-7.8 1.6-19.3 9.5-17.7 12.1.3.6 1.7-.2 3.2-2 2.8-3.2 8.8-6.1 13.6-6.5 2-.2 2.9-.8 2.7-1.7-.2-1.1 0-1.2 1-.4 1.1.8 12.8 2.2 23.6 2.7 1.2.1 2.2.4 2.2.8 0 .5.3.7.8.6 2-.5 29.9 9.4 42.7 15.2 3.9 1.7 21.1 6.9 27 8.1 7.9 1.6 23.6 1.6 30.5 0 7.5-1.8 16.7-6.3 21.2-10.3 7.8-6.9 10.8-17.7 7.2-25.5-3.7-7.6-13-11.2-19.1-7.4m-67.6 30.7c-.3.3-1.2.4-1.9.1-.8-.3-.5-.6.6-.6 1.1-.1 1.7.2 1.3.5m6 3c-.3.3-1.2.4-1.9.1-.8-.3-.5-.6.6-.6 1.1-.1 1.7.2 1.3.5"/><path d="M283.6 299.7c-4.2.5-7.2 2.1-12.5 6.8-8.3 7.4-9.8 19.8-3.5 29 3.2 4.8 3 6.2-1.1 6.9-1.9.4-4.1 1.4-5 2.2-.8.9-1.5 1.3-1.5.9 0-1-8.2 5-12.2 8.9-2 2-5.2 6.6-7 10.3-6.1 12.6-4 26.5 5.1 34.5 5.8 5.1 11.6 7.2 20.2 7.2 4.2.1 8.7-.4 10-1 9.8-4.6 12.8-6.7 18.3-12.5l6.2-6.5 1.1 6.9c.6 3.8 1.6 7.3 2.3 7.7.6.4 1.2 1.1 1.2 1.6 0 2.6 4.5 5.6 10.5 6.9 6.5 1.3 15.4-6.6 15.3-13.7-.1-2.2-.1-2.2-1.2-.3-1.8 3.3-4 4.5-8.1 4.5-5.6 0-10.1-4.9-11.8-12.7-.7-3.2-2-7-3-8.4-1.5-2.1-1.7-3.9-1.2-10.2.4-4.9 1-7.7 1.8-7.7 2.7 0 11.5-3.2 11-4-.3-.5 0-1.2.6-1.6.8-.4.9-.3.5.4-1 1.7.9 1.5 2.4-.3.7-.8 1.6-1.3 2-1 1 .6 6.7-6.6 8.1-10.2s1.3-12.7-.1-13.1c-.5-.2-.8-.7-.5-1.2.3-.4-.9-2-2.6-3.4-3.2-2.7-8.1-3.4-10.9-1.6-1.2.8-1 1 1 1 6.8.1 9 8 4 14.9-2 2.9-10.2 7-14.9 7.6-1.4.1-5.7.6-9.6 1-21.8 2.1-33 10.6-31.2 23.6 1 7.5 9.4 11.4 14.8 6.9l2.4-1.9-3.7.6c-4.9.7-6.8-.9-6.8-5.7 0-7 6.9-11 19-11h6.3l-.6 5.2c-.6 5.5-3.6 13.3-7 18.2-1.1 1.5-4.3 4.3-7.1 6.1-4.8 3.1-5.7 3.3-12.7 3.1-12.8-.4-17-4.5-17.7-17.1-.5-9.1 1.3-14.6 6.9-20.9 5.1-5.9 17-12.6 22.2-12.6 2.3 0 2.2-.2-1.7-4.3-8.1-8.6-8.6-23.5-1.1-29.3 4.6-3.4 11.8-3.4 14.1.1 3 4.6-.5 11.5-5.7 11.5-3.6 0-2.9 2.4 1.2 4.5 4.2 2.2 6.3 1.8 10.4-1.8 3.2-2.9 3.8-4.1 4.3-8.6.4-4.1.1-5.6-1.4-7.3-1.3-1.5-1.4-1.9-.4-1.4.8.4-.4-1-2.7-3.2-2.3-2.1-4.8-3.9-5.5-3.9-.7-.1-2.6-.3-4.3-.6-1.6-.2-4.8-.2-6.9 0M296 324c0 .5-.5 1-1.1 1-.5 0-.7-.5-.4-1 .3-.6.8-1 1.1-1 .2 0 .4.4.4 1m260.5-16.3c-1.1.3-2.4 1.1-2.8 1.9s-1.6 1.4-2.6 1.4c-4.7 0-17.9 11.9-24.4 22-6.2 9.6-6.3 9.8-10.7 18.7-2.4 4.9-3.8 8.9-3.4 10 .4 1.3.3 1.5-.4.5-.7-1.1-1.4-.3-3 3-2.1 4.3-7.2 17.4-7.6 19.3-.1.5-.4 1.4-.8 2-3.3 5.5-20.1 66.6-22.4 81.6-1.4 9.3-3.7 9.9-5.4 1.4-2.4-12-8.2-44-10-54.5-1-6.3-3.3-19.6-5-29.5-4-22.9-4.9-28.2-6.3-37.9-1.1-7.5-1.4-8-4.1-8.7-4.4-1.2-26.5 1-37.1 3.6-3.3.9-7.1 1.8-8.5 2.1-4.2.9-17 6.5-17 7.5 0 .5-.7.9-1.6.9s-1.2.5-.8 1.2.3.8-.4.4c-1.7-1-13.6 11.3-16.1 16.6-3.5 7.8-5.2 15.8-4.6 21.3.7 5.6 2.5 11.5 3.6 11.5.4 0 .9.9 1.2 2 .3 1 2.5 3.2 5 4.8 6 3.8 14.2 4.3 19.3 1.1 1.9-1.1 3.4-2.3 3.4-2.6 0-.4-.3-.4-.6-.1-.3.4-2.2-1.2-4.2-3.4l-3.7-4.1-.2-12.3c-.2-6.8.1-12.4.6-12.4s1.6-1.7 2.4-3.8c1.8-4.3 8.5-11.4 14.2-14.7 5.4-3.2 14.6-6.2 22.7-7.5 7.1-1.1 9.8-.6 9.8 1.7 0 .8.4 1.2.8.9 3.8-2.3-7 51.8-14.7 73.7-1.1 3.2-2 6.2-1.9 6.5.1.4-.2 1.4-.5 2.2s-2.5 7.3-4.8 14.5c-2.3 7.1-4.7 14.3-5.4 16-.7 1.6-2.3 5.9-3.6 9.5-1.2 3.6-4.4 11.3-7.1 17.2-2.6 6-4.8 11.2-4.8 11.8 0 .5-.4 1-.8 1-.6 0-2.5 3.8-3 6.3-.1.4-.6 1.3-1.2 2-.6.6-3.3 4.5-5.9 8.5s-6.5 9.1-8.6 11.4c-4.4 4.5-13.3 10.8-15.2 10.8-3.2 0 .6 4.8 5.9 7.6 4.7 2.4 13.9 2.9 19.7.9 2.8-.9 5.1-2.1 5.1-2.6s.5-.9 1.1-.9c1.6 0 7.5-6.2 11.7-12.2 4.7-7 10.9-22.3 14.1-35.4.5-2.1 2.1-8.2 3.6-13.4s3.3-12.7 4.1-16.5c.8-3.9 1.7-7.9 1.9-9 6.1-27.7 9.3-44.2 12.2-61.5 1.6-9.9 2.9-13.8 4.3-12.4.4.5 1.9 8.1 3.4 16.9 1.4 8.8 3.7 21.8 5.1 29 1.4 7.1 2.7 14.6 3 16.5s1.2 7.8 2 13c.9 5.2 1.6 10.9 1.5 12.7 0 1.7.4 3.4 1 3.8.5.3 1 2.8 1 5.4s.3 5.1.8 5.5c.4.4.8 2.6.8 4.9.1 4.3 3.8 26.3 5.4 32.7.5 1.9 1.4 5.6 2.1 8.3.6 2.6 1.6 4.7 2.1 4.7.6 0 .8.6.5 1.4s.1 2 .8 2.6c.8.7 1.3 1.6 1 2-.6 1 3.7 7.4 7.9 11.8 7.9 8.3 18.3 11 31.1 8 11.8-2.7 22.2-13.9 24.2-26.3.7-4.1.2-4.3-4-1.3-1.7 1.2-3.6 2.3-4.2 2.5-.5.1-3.5.7-6.7 1.4-4.8 1.1-6.5 1-11.2-.3-3.1-.8-5.6-1.1-5.6-.7 0 .5-.4.9-1 .9-.5 0-1-.6-1-1.4 0-.7-1.2-2.2-2.7-3.1-5.5-3.6-14.2-16.6-14.3-21.3 0-1.3-.3-2.1-.7-1.9-.5.3-.8-.5-.9-1.6 0-1.2-.6-5.1-1.2-8.5-1.4-7.8 0-17.2 5.4-36.7 2-7.2 3.8-13.7 3.9-14.5.2-.8.4-1.7.6-2 .1-.3.3-1 .4-1.5.1-.6.5-1.7.8-2.5.4-.8 2.6-7.1 5.1-14 6-17 14-36.9 18.8-46.4 2.2-4.3 3.7-8.5 3.4-9.3s-.2-1.2.3-.9 1.7-.6 2.6-2c1.2-1.8 1.3-2.4.4-1.9-.8.3-.5-.1.5-.9 1.1-.9 1.4-1.6.7-1.6s-.9-.5-.6-1c.4-.6 1-.8 1.5-.5.4.3 1.5-1 2.4-2.9.9-1.8 4.1-6.8 7.1-11 3-4.3 5.5-8 5.5-8.4s.9-1.4 1.9-2.2c1.1-.7 1.8-1.7 1.5-2.2-.3-.4.1-.8.8-.8s2.6-1.4 4.2-3.1c3.8-4 12.6-9.9 14.8-9.9.9 0 1.8-.4 2-1 .2-.5 3.7-1.3 7.8-1.6 6-.5 8.3-.3 10.7 1 4.4 2.2 4.5 2.1 3.7-2.2-2.2-11.9-10.5-19.1-22.9-19.7-3.8-.2-7.9-.1-9 .2M584 323c0 .5-.5 1-1.1 1-.5 0-.7-.5-.4-1 .3-.6.8-1 1.1-1 .2 0 .4.4.4 1m-50.8 10.2c-.7.7-1.2.8-1.2.2 0-1.4 1.2-2.6 1.9-1.9.2.3-.1 1.1-.7 1.7m12.3 8.8c.3.5.1 1-.4 1-.6 0-1.1-.5-1.1-1 0-.6.2-1 .4-1 .3 0 .8.4 1.1 1M392 356c0 .5-.4 1-1 1-.5 0-1-.5-1-1 0-.6.5-1 1-1 .6 0 1 .4 1 1m-21.5 14c-.3.5-1 1-1.6 1-.5 0-.9-.5-.9-1 0-.6.7-1 1.6-1 .8 0 1.2.4.9 1m138.2 1.2c-.3.8-.6.5-.6-.6-.1-1.1.2-1.7.5-1.3.3.3.4 1.2.1 1.9M436 388c0 .5-.4 1-1 1-.5 0-1-.5-1-1 0-.6.5-1 1-1 .6 0 1 .4 1 1m-46 127.4c0 .3-.4.8-1 1.1-.5.3-1 .1-1-.4 0-.6.5-1.1 1-1.1.6 0 1 .2 1 .4m96 32.6c0 .5-.4 1-1 1-.5 0-1-.5-1-1 0-.6.5-1 1-1 .6 0 1 .4 1 1M69.6 326.4c-1.1 3.9-.6 8.1 1.2 10.9 1 1.5 2.1 2.4 2.5 2.1.3-.4 0-1.6-.8-2.8-1.7-2.3-2-7.9-.6-10.5.7-1.3.6-1.8-.4-1.8-.7 0-1.6 1-1.9 2.1m9.6 2.9c-.8.9-.3 1.2 2.1 1.2 2.9 0 3.2.3 3.5 3.3.5 4.7-1.2 6.2-6.7 6.2-3.3 0-4.2.3-3.1 1 2.9 1.9 7.1 1.1 10.1-1.9 3.4-3.5 3.6-4.9.8-8.5-2.2-2.8-5-3.4-6.7-1.3m302.9 7.3c-12.7 5.8-23.7 15.7-28.4 25.8-2.5 5.4-5.3 16.4-4.3 17.3.3.3.8-.8 1.1-2.3 1.4-6.5 3.6-12.7 5.6-15.5 1.1-1.6 1.7-2.9 1.3-2.9s1.8-2.5 4.9-5.6 5.4-6.1 5.1-6.6 0-.8.7-.6c.8.1 3-.9 4.9-2.4s6.3-4 9.8-5.8c5.6-2.8 7.5-4.1 5.5-3.9-.5 0-3.2 1.1-6.2 2.5m-255.6 3.8c-9.6 2.4-18.7 6.4-17.9 7.8.3.4-.3.8-1.3.8-3.5 0-13.7 9.6-18.9 17.7-8.3 12.8-9.7 27.3-3.9 40.3 1.6 3.6 3.3 6.6 3.7 6.8s.8.9.8 1.6c0 .6.9 1.8 2 2.6s2 1.9 2 2.5c0 1.1 19.3 20.5 20.4 20.5.4 0 2.4 1.7 4.5 3.7 2.1 2.1 7.4 7.3 11.9 11.5 4.5 4.3 8.2 8.2 8.2 8.7s.4 1.1.8 1.3c1.3.5 7.3 10.9 8.8 15.1 2.5 7.2 2.8 16.8.8 25.4-4.9 21-20.2 36.2-43.4 42.9-5 1.4-9.7 1.8-20 1.7-12.8 0-13.9-.2-22-3.3-7-2.8-9.5-4.4-14.6-9.4-3.6-3.6-7.2-8.5-8.9-12.1-2.7-5.7-2.9-6.7-2.9-20-.1-13.5 0-14.2 2.7-19.3 6.2-11.8 14.4-17.7 26.5-19.2 6.2-.8 7.1-.7 12.9 2.1 6.1 2.9 10.2 7 11.3 11.4.2 1.1.4 5.2.4 9.1-.1 5.8-.6 8-2.7 11.6-2.7 4.7-8.4 9.2-13 10.4-3.6.8-2.2 2.7 3.9 5 11.7 4.5 25.3-2.6 32.1-16.6 2.3-4.7 2.7-6.8 2.8-15 0-5.2-.4-10.4-.9-11.5s-1-2.7-1.2-3.5c-.6-2.9-8.4-15.6-8.4-13.6 0 .4-1.5-.9-3.4-2.8-1.8-2-3.8-3.6-4.4-3.6s-1.2-.3-1.4-.8c-.8-1.7-10-5.2-16.1-6.1-9.7-1.4-19.6.2-28.2 4.5-7.6 3.9-7.6 3.9-15.3 11.4-3.1 3-5.1 5.7-4.8 6.5.3.9 0 1.2-.8.9s-1.8.8-2.7 2.8c-.7 1.8-1.6 3.5-2 3.8-1.1.8-4.6 9.1-5.9 14-2 7.1-1.8 24.4.3 32 2.1 7.8 8.1 19.6 9.7 19.2.6-.1.9.2.5.8-1.1 1.7 12.8 14.3 20.1 18.1 3.8 2 7.5 3.4 8.2 3.2.6-.3 1.2 0 1.2.5 0 1.4 11.2 4.1 21.6 5.2 9.4 1 20.6-.1 34.9-3.3 7.5-1.8 20.9-8.5 29.6-14.8 7-5.1 19.2-17.7 18.4-18.9-.3-.4.1-1 .8-1.3 1.9-.7 7.9-12.6 8.2-15.9 0-1.4.7-3.3 1.4-4.1.6-.8 1.7-5.6 2.3-10.6 1.4-11.2.2-19.2-4.1-28.2-3.2-6.9-7.1-13-7.1-11.4 0 .5-.9-.6-1.9-2.6-1.9-3.6-7.7-9.4-19.6-19.9-3.3-2.9-7.9-7-10.2-9.2-2.4-2.2-4.3-3.7-4.3-3.2s-.5.1-1.1-.9c-.5-.9-1.9-1.7-2.9-1.7-1.1 0-2-.7-2-1.5 0-.9-2.5-4.5-5.5-8s-6.2-7.9-7.1-9.7-2.1-3.9-2.7-4.7c-1.5-1.7-1.7-3.2-2.1-12-.4-7.7-.7-7 6-19.1.8-1.4 1.4-2.1 1.4-1.5 0 .5.9.1 1.8-1 2.3-2.6 9-6.2 15.6-8.4 3.6-1.3 7.5-1.7 13.2-1.5 11.3.3 16 2 21.5 7.4 3.8 3.8 4.7 5.4 5.2 9.4.7 5.1 0 12.4-1.4 14.2-.5.6-.6 1.4-.2 1.7.3.4.1.7-.5.7-.7 0-1.2.6-1.2 1.3 0 2.4-12.2 12.5-14.2 11.9-.5-.1-.8.2-.8.6s-2.7.5-6.1.2l-6.1-.6.6 2.8c.8 3.9 4.6 9.5 7.6 11 1.4.7 3.1 1.9 3.8 2.5 2.4 2.3 12.7 1.6 18.1-1.1 5.5-2.9 14.1-10.8 14.1-13.1 0-.9.4-1.4.9-1.1 1.1.7 5.7-9.4 7.1-15.9 1.6-7.2.4-17.2-3.1-24.5-1.5-3.3-3.3-6-3.8-6s-1.3-.9-1.6-2.1c-.4-1.1-.9-1.8-1.3-1.5-.3.3-1.1-.3-1.9-1.3-1.7-2.5-12-8.4-13.2-7.7-.5.3-1.1 0-1.4-.7-.7-1.8-11.9-3.7-21.3-3.6-4.7 0-11.6 1-16.9 2.3m3.5 85.8c0 .4-.9.8-2 .8s-2-.4-2-.9c0-.6.9-.9 2-.8s2 .5 2 .9m7 7.8c0 .5-.7 1-1.5 1s-1.5-.5-1.5-1c0-.6.7-1 1.5-1s1.5.4 1.5 1m-97 98c0 .5-.2 1-.4 1-.3 0-.8-.5-1.1-1-.3-.6-.1-1 .4-1 .6 0 1.1.4 1.1 1"/><path d="M572.7 343.5c-4.7 1.8-9.9 5.4-9.2 6.5.3.4-.3.7-1.2.6-1.1 0-1.8.6-1.8 1.8 0 1.1-.7 2.1-1.5 2.3-1.3.4-1.3.3 0-.6 1.1-.8 1.1-1.1.2-1.1-2.8 0-12.9 13.3-18.3 24.3-6.4 13.2-7 20.9-2.3 28.4 2.5 4 8.7 6.4 16.1 6.2 5.9-.2 6.3-.3 4.2-1.4-1.3-.7-4.3-1.6-6.6-2-4.6-.7-9-4.4-10-8.2-1.6-6.6 2.1-22.2 7.2-30 .9-1.2 1.5-2.6 1.4-2.9 0-.4.3-1 .8-1.3 2.4-1.7 6.2-7.4 5.7-8.3-.4-.6-.2-.8.3-.5.6.4 2.7-1.1 4.7-3.3 4.7-5.2 10.2-8.7 15.1-9.6 3.2-.6 3.6-.9 2-1.5-2.6-1-2.3-1-6.8.6m-343.4 10.7c-2.7 3-5.4 8.4-4.6 9.2.4.3.1.6-.5.6-2.2 0-4.5 10.9-3.9 18.5.9 11.9 5.6 21.7 14.6 30.1 3.7 3.6 12.1 7.3 17.2 7.8 2.4.2 3.5.2 2.4-.1-3.9-.8-8-2.7-11.3-5-1.7-1.3-3.6-2.2-4-1.9-.4.2-1.4 0-2.2-.6-1.2-.8-1.1-.9.3-.4 1.2.4.4-1-2.2-4-11.6-13.3-14.3-34.4-6.4-50.5 1.6-3.2 2.9-5.9 2.8-5.9s-1.1 1-2.2 2.2m-5.7 16.5c-1 1-1.9-.5-1-1.8.6-1.1.8-1.1 1.2 0 .2.7.1 1.5-.2 1.8M201 360.2c0 .2.7 2.1 1.5 4.3 2.2 6.2 1.9 19.9-.6 27-1.1 3.3-2.5 6.6-3.1 7.2-.8 1-.3 1.3 1.8 1.4 6.4.1 12.4 3.9 16.8 10.4 1.4 2.1 2.6 3.3 2.6 2.8 0-.6-1.5-3.3-3.2-5.9-2.3-3.4-4.8-5.7-8.1-7.3-5.4-2.6-5.2-1.8-2.2-12.6 2.1-7.3 1.5-15.4-1.6-22-1.7-3.7-4-6.7-3.9-5.3m2.7 33c-.3.8-.6.5-.6-.6-.1-1.1.2-1.7.5-1.3.3.3.4 1.2.1 1.9m127.1-26.3c-.1.5-1.9 1.8-3.8 3-4 2.4-2.9 2.8 2.1.7 1.8-.7 3.4-2.1 3.5-3 .2-1.7-1.2-2.3-1.8-.7m11.1 31.7c-.5 8.2-3 12.5-10.2 17.2-3.7 2.5-4.9 2.7-13.6 2.7-7.5 0-10.9-.5-15.7-2.3-9.9-3.6-21.7-2.5-28.4 2.8l-2.5 2 4.5-1.6c2.5-.9 8.1-1.8 12.5-2.1 7-.4 9-.1 15.3 2.2 5.1 1.8 8.3 2.4 10.5 2q3.3-.6 1.8.3c-2.4 1.7 8.1.2 13.6-2 10.8-4.2 17.1-16.2 13.5-25.8-.8-2-1-1.2-1.3 4.6m248.6 4.4c-5 3.2-7.7 9.1-7.9 17.1-.1 4.2.4 7.3 1.2 8 .6.7 1.2 2 1.2 2.9s1.3 3 3 4.6c4.2 4.1 3.8 6.6-1.5 11.1-4.1 3.4-4.4 3.9-2.8 5 1.6 1.2 1.6 1.3 0 1.3-.9 0-1.7-.5-1.7-1 0-.6-1.1-1-2.4-1-2.1 0-2.4-.6-3.1-5.7-.8-6.5-3.3-12-7.1-15.8-3.3-3.3-6.4-4.5-11.5-4.5-5.5 0-9.8 2-13.9 6.6-3 3.4-3.5 4.5-3.4 8.8 0 3.2-.2 4.3-.7 3-.6-1.6-.8-1.4-.8.9-.1 1.6.3 2.6.8 2.3.5-.4.7.2.4 1.3-.7 2.8 2.1 7.5 6.7 11.1 3.3 2.6 5.2 3.3 10.7 3.8 6.5.7 6.8.8 6.4 3.2-1.2 8.8-12.1 22-19.6 23.9-7.9 2-12.4 1.5-15.6-1.9-1.6-1.6-3.1-4.1-3.5-5.5-.3-1.3-.9-2.3-1.3-2.1-1.6 1 .7-20.3 2.9-26.9 1.3-3.9 2.3-7.3 2.2-7.8-.1-.4.4-.7 1-.7 1.6-.1 6.1-8.7 5.3-10.1-.4-.5-.1-.8.6-.7 1.3.3 5.5-5.9 4.6-6.8-1.2-1.2-18.7 10.5-18.7 12.5 0 .4-1.4 2.3-3.1 4.2-8.8 9.6-14.5 29.7-11.9 42 1.4 6.4 6.7 15.6 8.8 15.2.7-.2 1.2.2 1.2.8 0 .5 2.1 1.9 4.6 3.1 3.6 1.5 6 1.9 10.3 1.5 11.3-1 15-2.7 25.1-11.5 7.8-6.7 18-25.3 18-32.7 0-2 1.1-3 5.5-5.1 5.2-2.6 14.6-11.2 15.6-14.3.4-1.1 2.8-1.4 9.2-1.5 4.8-.1 8.7.2 8.7.7s-.7.7-1.5.3c-1-.4-1.5.1-1.5 1.4 0 1.1-2.7 7.3-6.1 13.7-11.8 23-14.5 34.5-9.9 42.1 2 3.3 7.1 6.2 10.9 6.2 3.6 0 12.5-4.6 17.5-9.1 6.1-5.5 11.8-12.8 10.9-14.2-.3-.5-.1-.7.4-.4 1.1.7 4.6-3.9 4.6-6 0-.7.3-1 .7-.8 1 .6 2.9-3.5 3.2-6.9.5-4.5-1.5-4.1-5.2 1.1-8.8 12.6-16.5 19.8-22 20.6-3.4.5-5-1.4-5-6 0-7.1 2.6-13.3 13-31.8 8.5-15.1 9.3-18 6.5-23.4-.8-1.6-2.2-3.1-3-3.5-2.5-.9-4.7-.7-4 .4.3.5 0 .7-.8.4-.7-.2-3.5.4-6.1 1.6-2.7 1.1-7 2-9.8 2-5 0-5 0-4.4-2.8 1.8-8 2.5-13.7 1.9-16.5-.8-4.1-3.1-7.7-4.9-7.7-.8 0-1.4-.5-1.4-1 0-1.7-4.3-1.1-7.5 1m-26.4 33.9c2.1 1.7 2.4 2.9 2.7 10.1l.4 8.3-6.2-.5c-5.3-.4-6.7-.9-8.7-3.2-2.6-3-3.2-10.2-1-12.5 1-1.1 1-1.4 0-1.8-2.8-1-1-1.8 4.6-2.1 4.5-.1 6.4.2 8.2 1.7"/><path d="M194.9 413.2c-4.1 4.3-5.9 9-5.9 15.5 0 6.7 2.5 13 6.4 16 1.4 1.2 2.6 2.9 2.6 3.8 0 2.1-7.7 16.8-11.9 22.5-3.3 4.5-3.8 6.5-2 7.5 1.3.9 4.3-1.8 7.9-7 5.1-7.5 8-13.3 7.4-15.2-.5-1.4-.4-1.5.4-.4s1.1.9 1.8-1c.4-1.3.8-2.9.9-3.4 0-.6 2.7-1.1 6-1.3 3.2-.2 6.6-.8 7.4-1.5 1.2-.9 1.3-.9.7 0-.4.8-.1 1.3.8 1.3s1.6.6 1.6 1.4-3.4 8.4-7.5 16.8c-9 18.3-11.4 26.6-9.5 33.2 1.5 5.6 4.6 8.5 10.1 9.7 6.4 1.5 14.7-2.9 23.3-12.3 3.6-3.9 6.6-7.4 6.6-7.9s.9-.9 2-.9c1.3 0 2.2.9 2.6 2.7 2.6 11.9 12.7 19.2 25.2 18 7.3-.7 10.6-1.4 15.1-3.4 2-.9 3.8-1.7 4.1-1.7 3-.7 16.2-11.5 15.4-12.7-.3-.5.2-.9 1-.9s1.8-.5 2.2-1.2.3-.8-.4-.4c-.8.4-1 .2-.6-.7.5-1.5 4.1-2.6 5.9-2 .6.2.8 2.7.7 5.7-.8 11.8 8.5 18.7 19.2 14.2 3.8-1.6 6.7-3.9 13.6-10.9 2.6-2.6 5-4.7 5.3-4.7 1.1 0-.5 6.3-2.7 10.9-1.9 3.9-2.8 4.6-11.3 8.3-5.5 2.4-9 4.4-8.6 5.1.3.5.1.7-.4.4-1.5-.9-17.2 7.8-20.3 11.4-.3.3-1.6 1.3-3 2.2-1.4 1-5.6 4.7-9.3 8.4-9.4 9.3-14.8 20.1-14.9 29.6 0 6.8 1.6 12.7 3.5 12.7.6 0 .7.3.4.7-.9.9 3.3 5.3 5 5.3.7 0 1.3.4 1.3.9 0 1.6 6.1 3.1 12.8 3.1 11.7 0 21.6-6.4 32.4-21 5.8-7.8 17.1-33 16.1-35.8-.4-.9-.2-1.3.4-.9s1.6-.6 2.2-2.3c.5-1.7.7-3 .4-3s0-.7.7-1.4c.6-.8 2.4-5.5 3.9-10.3l2.8-8.8 5.7-3c3.2-1.6 5.3-3.1 4.7-3.3-1.6-.5-1.3-2.2.4-2.2.8 0 1.5.5 1.5 1.1 0 .5.4.8 1 .4.5-.3.6-1.3.3-2.1-.5-1.3-.1-1.5 1.3-1 1.4.4 3.2-.7 6.7-4 4.6-4.5 5.1-5.5 4.8-8.3-.2-.7.2-1 .8-.6.6.3 1.1-.1 1.1-1 0-1.2-1.5-.3-5 2.8-2.8 2.5-7.2 5.9-9.8 7.6s-5.2 3.5-5.9 4.1c-.7.5-1.8.7-2.6.4-1.1-.4-1.2-1.4-.4-4.7.5-2.3 1-5.6 1-7.4s.4-3 .7-2.8c.4.3 2.2-4.2 4-9.8 7.6-23.1 15.2-41.2 18.3-43.6 1-.7 1.6-2 1.3-2.7-.3-.8 0-1.4.7-1.3 2.5.3 3.8-.1 3.2-1.1-.3-.6-3.9-1-7.9-1-6.2 0-7.8.4-11.4 2.7-2.5 1.6-4.6 3.9-4.9 5.3-.4 1.4-1.2 2.9-1.9 3.5-1.2 1-3.1 6.1-9.8 27.2-3.2 10.1-6.8 17.7-10.1 20.9-.6.7-2.2 2.5-3.6 4-4.3 5.1-13.1 7.2-15.9 3.9-1.6-1.9-.8-12.3 1.3-17.5 1.6-3.8 5.9-15.8 6.9-19 .5-1.9 1.3-4 1.8-4.5 1.2-1.6 3-10.1 3-14.3 0-5.4-4.3-10-9.1-9.7-4.8.4-8.1 1.9-12.3 5.6-3.8 3.3-8.4 10.9-6.7 10.9.5 0 1.3-.5 1.6-1 .3-.6 2.1-1 4-1 2.7 0 3.4.4 3.9 2.6.9 3.3-6.2 26.4-8 26.4-.7 0-2.8 2.1-4.7 4.8-2.7 3.7-3.4 5.4-3 7.6.4 2 .2 2.7-.6 2.2-.6-.4-1.1-1.5-1.1-2.4 0-1.2-1-.6-3.5 1.9-12.5 12.9-30.6 17.5-39.4 10-1.8-1.5-3.4-3.9-3.6-5.2s-.6-3.6-.9-5.1c-.6-2.6-.5-2.7 2.5-2.1 5.8 1.1 21.5-4.1 28-9.5 4.7-3.8 9.1-8.2 8.3-8.2-.4 0-.1-.6.8-1.3 5.7-4.3 8.5-19.7 5-26.8-1.4-2.8-2.2-3.3-4.5-3.1-2.7.3-3.8-1.2-1.4-2.1.6-.2-.7-1-3-1.6-6.4-1.8-13.4-.6-22.3 3.7-6.3 3.1-19.2 15.5-18.8 18 .2.9-.2 1.6-.8 1.5-1.5-.3-7 11.2-8.8 18.1-1.5 5.5-3.5 9.6-4.8 9.6-.5 0-.8.6-.8 1.4s-2.6 4.1-5.8 7.3c-6.8 6.9-12.9 9.4-15.7 6.4-4-4.5.9-18.1 15.4-42.6 4.7-8 5.3-13.3 1.8-17.3-2.4-2.6-4.7-2.8-8.7-.7-1.7.9-3 1.3-3 1.1 0-.3-1.9.1-4.1.9-5.5 2-12.5 2-13.2 0-.4-.8-.2-1.7.2-1.9 1.7-1.1 1.9-11.1.5-16.3-2.4-8.4-9.1-10.8-14.5-5.1m100.9 25c2.2 2.2 1.4 10.9-1.6 16-2.6 4.5-8.8 11.6-13 15-4.2 3.3-13.2 7.8-15.7 7.8-2.6 0-2.6-.2-2.2-4.8.2-2.6.9-5.9 1.5-7.4s1-3.3.8-4c-.1-.7-.1-1 .1-.6.3.5 1.8-1.8 3.4-5.1 3.3-6.7 9.9-13.9 14.9-16.4 4.1-1.9 10.1-2.2 11.8-.5m-57.3 2.9c.4 1.1.4 2.3.1 2.6-.3.4-.6-.1-.6-1 0-1-.4-1.7-1-1.7-.5 0-1-.5-1-1 0-1.8 1.9-1 2.5 1.1m145.5 2.4c0 .8-.4 1.5-.8 1.5-.5 0-.9-.7-.9-1.5s.4-1.5.9-1.5c.4 0 .8.7.8 1.5m-166.4 2.6c.4.8 0 .9-1.5.4s-2.1-.2-2.1.9c0 2-.7 2-2.6.2-1.1-1.1-1.1-1.6-.1-1.9 2.2-1 5.6-.7 6.3.4M296 468c0 .5-.4 1-1 1-.5 0-1-.5-1-1 0-.6.5-1 1-1 .6 0 1 .4 1 1m-82 1c0 .5-.2 1-.4 1-.3 0-.8-.5-1.1-1-.3-.6-.1-1 .4-1 .6 0 1.1.4 1.1 1m73 4.4c0 .2-.7.7-1.6 1-.8.3-1.2.2-.9-.4.6-1 2.5-1.4 2.5-.6m29.3 10.2c.9.9-.4 3.5-1.4 2.8-.5-.3-.9-1.2-.9-2 0-1.4 1.2-1.9 2.3-.8m28.3 35.7c.1 2.1-.2 3.7-.6 3.7s-1.1 1.5-1.4 3.3c-1.4 7.7-13.5 33.1-19.6 41.1-2.2 2.8-5.7 6.2-7.9 7.6s-4.1 2.7-4.1 3c0 .6-6.4.3-11.7-.6-4.8-.7-6.7-4.9-6.1-13.6.7-9.4 4.4-16.2 13.4-24.8 7.3-6.9 19.2-15.5 25-18 2.1-.9 3-1.9 2.6-2.8-.4-1.1 0-1.3 1.6-.8 1.4.5 3 .1 4.4-.8 3.2-2.2 4.3-1.5 4.4 2.7M313.5 530c.3.5-.3 1-1.4 1-1.2 0-2.1-.5-2.1-1 0-.6.6-1 1.4-1s1.8.4 2.1 1M14 415.7c0 1.2 1.5 4.3 3.3 6.9 2.4 3.6 4.8 5.7 9.5 8.1 8.3 4.3 16.5 4.5 30.8.7 9.6-2.5 16.8-3.1 22.9-1.8 2.6.6 2.8.5 1.6-1-.7-.8-1.7-1.3-2.2-1s-.9 0-.9-.7c0-.6-.8-.9-2-.6-1.1.3-2 .1-2-.4 0-1.5-5.5-1-18.8 1.7-14.6 3-20.4 2.8-27.7-.6-2.7-1.3-5.6-2.4-6.2-2.3-.7 0-1.1-.3-.8-.7.3-.5 0-1.2-.5-1.5-.6-.4-2.5-2.5-4.1-4.7-2.3-3.2-2.9-3.7-2.9-2.1m638.3 59.1c-.6 2.8-2.9 8.6-5 12.9-4.9 10.1-16.1 21.8-24.8 25.9-5.4 2.6-7 2.9-16.5 2.9-11.4 0-14.8-1.1-22.1-7.2l-3.4-2.8 2.2 3c1.1 1.6 2.9 3.7 3.9 4.6 2.9 2.5 8.5 4.9 9.7 4.2.5-.3.7-.2.4.4-.7 1.2 5.7 3.3 10 3.3 3.9 0 13.4-2.5 19-5.1 2.5-1.1 7.8-5.3 11.8-9.3 8.4-8.4 14.9-20.2 16-28.9 1-7.6.2-9.9-1.2-3.9"/><path d="M219 521.9c-5.8.9-19.8 5.7-21.5 7.4-.7.7-.3.7 1 .3 6.9-2.6 18.7-3.8 31-3.3 14.6.6 13.5.5 23 3.6 12.1 4.1 19.6 10.6 21.6 18.7 1.5 6 2.9 5.5 2.9-1 0-10.1-8.5-18.5-23.9-23.5-7.3-2.4-25.1-3.5-34.1-2.2m35 4.1c-.8.5-2.2.9-3 .9-1 0-.8-.3.5-.9 2.7-1.2 4.3-1.2 2.5 0m196.1 8.6c0 1.6.4 3.8.9 4.9.6 1.3.7.5.3-2.5-.7-5.3-1.3-6.6-1.2-2.4"/><path d="M211.5 540c-14.5 1.8-30.2 7.1-53.5 18-9.1 4.2-19.1 8.7-22.2 10s-5.5 2.7-5.2 3.2c.3.4-.1.5-.9.2s-3.2.2-5.3 1.1c-4.8 2-17.4 5.2-24.4 6.2-6.9 1-29.2 1-34.5.1l-4-.7 3 1.3c1.7.8 4.4 1.6 6 1.9 15.5 2.6 16.8 2.7 25.8 1.7 9-1.1 13.1-1.9 21.2-4.1 9.7-2.7 13.5-4.1 13.5-5 0-.6.5-.7 1-.4 1.3.8 8-1.6 8-2.9 0-.5.3-.7.6-.4.3.4 3.1-.5 6.2-1.8 8.6-3.7 10.2-4.6 9.6-5.5-.3-.5.2-.6 1-.3s3.6-.5 6.3-1.7c24-10.9 48.9-16.8 65.1-15.3 9.2.8 19.2 3.3 22.3 5.5 2 1.4 2.9 1.5 3.8.6 1-.9 1.1-.8.6.4-.8 2 3.4 6.4 4.8 5 1.2-1.2-1.6-5.3-5.6-8.4-4.4-3.3-11.6-6.9-12.6-6.2-.5.3-1.1.1-1.3-.5-.4-1.1-12.5-3-18.8-2.8-2.5 0-7.2.4-10.5.8m2.2 4.6c-.3.3-1.2.4-1.9.1-.8-.3-.5-.6.6-.6 1.1-.1 1.7.2 1.3.5m238-1.3c-.3.9-.2 1.9.3 2.2s.7 1.2.3 2c-.3.8 0 1.5.7 1.5.6 0 .8.5.5 1-.3.6.9 4.3 2.9 8.3 6.4 13.5 18.7 23.3 33.5 26.7 4.2 1 6.8 1 12 .1 10.2-1.8 9.8-2.6-1.3-2.7-8.9 0-10.9-.4-17.3-3.1-4-1.7-9.1-4.5-11.3-6.3-6.4-5.1-16.8-21-19-29-.5-2-.7-2.1-1.3-.7M262 559.6c0 1.1.7 2.9 1.6 4 1.4 1.8 1.5 1.8.8-.6-.3-1.4-1-3.2-1.5-4-.7-1.2-.8-1.1-.9.6"/></g><path fill="gray" d="M342.8 117.7c.7.3 1.6.2 1.9-.1.4-.3-.2-.6-1.3-.5-1.1 0-1.4.3-.6.6m156 19c.6.2 1.8.2 2.5 0 .6-.3.1-.5-1.3-.5s-1.9.2-1.2.5M290.5 186c-.3.5-.1 1 .4 1 .6 0 1.1-.5 1.1-1 0-.6-.2-1-.4-1-.3 0-.8.4-1.1 1m-173.7 35.7c1.2.2 3 .2 4 0 .9-.3-.1-.5-2.3-.4-2.2 0-3 .2-1.7.4m139 0c.7.3 1.6.2 1.9-.1.4-.3-.2-.6-1.3-.5-1.1 0-1.4.3-.6.6m115.3 34.9c0 1.1.3 1.4.6.6.3-.7.2-1.6-.1-1.9-.3-.4-.6.2-.5 1.3M248 286.9c0 .5.7 1.1 1.5 1.5.8.3 1.5.1 1.5-.3 0-.5-.7-1.1-1.5-1.5-.8-.3-1.5-.1-1.5.3m113.5 1.1c.3.5.8 1 1.1 1 .2 0 .4-.5.4-1 0-.6-.5-1-1.1-1-.5 0-.7.4-.4 1m129.5 5.2c0 .9.5 2 1 2.3 1.3.8 1.3-.5 0-2.5-.8-1.3-1-1.3-1 .2m60.5 16.8c-1.6.7-1.7.9-.3.9.9.1 2-.4 2.3-.9.7-1.1.7-1.1-2 0m-104.7 28.7c.6.2 1.8.2 2.5 0 .6-.3.1-.5-1.3-.5s-1.9.2-1.2.5m-311.5 15c.9.2 2.3.2 3 0 .6-.3-.1-.5-1.8-.5-1.6 0-2.2.2-1.2.5m237.3 79.8c-.3.8-.1 1.5.4 1.5.6 0 1-.7 1-1.5s-.2-1.5-.4-1.5-.6.7-1 1.5m226.2 8.2c.7.3 1.6.2 1.9-.1.4-.3-.2-.6-1.3-.5-1.1 0-1.4.3-.6.6m-528 26c.7.3 1.6.2 1.9-.1.4-.3-.2-.6-1.3-.5-1.1 0-1.4.3-.6.6M316 501.9c0 .6.4 1.3 1 1.6s.7-.1.4-.9c-.7-1.8-1.4-2.1-1.4-.7m-143.9 8.7c0 1.1.3 1.4.6.6.3-.7.2-1.6-.1-1.9-.3-.4-.6.2-.5 1.3m39.7 1.1c.7.3 1.6.2 1.9-.1.4-.3-.2-.6-1.3-.5-1.1 0-1.4.3-.6.6m239.3 30.9c0 1.1.3 1.4.6.6.3-.7.2-1.6-.1-1.9-.3-.4-.6.2-.5 1.3m44.7 27.1c.7.3 1.6.2 1.9-.1.4-.3-.2-.6-1.3-.5-1.1 0-1.4.3-.6.6m-192 22c.6.2 1.8.2 2.5 0 .6-.3.1-.5-1.3-.5s-1.9.2-1.2.5"/><path fill="#BF8080" fill-opacity=".8" d="M132.9 143.7c-1.3 1.6-1.2 1.7.4.4.9-.7 1.7-1.5 1.7-1.7 0-.8-.8-.3-2.1 1.3m243 75c-1.3 1.6-1.2 1.7.4.4s2.1-2.1 1.3-2.1c-.2 0-1 .8-1.7 1.7M91 226.4c0 .2.8 1 1.8 1.7 1.5 1.3 1.6 1.2.3-.4s-2.1-2.1-2.1-1.3m67.1 5.2c0 1.1.3 1.4.6.6.3-.7.2-1.6-.1-1.9-.3-.4-.6.2-.5 1.3m-42.6 6.4c-.3.5-.2 1 .4 1 .5 0 1.3-.5 1.6-1 .3-.6.2-1-.4-1-.5 0-1.3.4-1.6 1m191.3 13.7c.7.3 1.6.2 1.9-.1.4-.3-.2-.6-1.3-.5-1.1 0-1.4.3-.6.6m40.3 9.9c0 1.1.3 1.4.6.6.3-.7.2-1.6-.1-1.9-.3-.4-.6.2-.5 1.3M154.3 270c0 3 .2 4.3.4 2.7.2-1.5.2-3.9 0-5.5-.2-1.5-.4-.2-.4 2.8m156.5 20.7c.6.2 1.8.2 2.5 0 .6-.3.1-.5-1.3-.5s-1.9.2-1.2.5m156.9 23c1.8.2 5 .2 7 0 2.1-.2.7-.4-3.2-.4-3.8 0-5.5.2-3.8.4m-192.6 7.9c0 1.1.3 1.4.6.6.3-.7.2-1.6-.1-1.9-.3-.4-.6.2-.5 1.3m197.2 1.1c1.5.2 3.9.2 5.5 0 1.5-.2.2-.4-2.8-.4s-4.3.2-2.7.4m-155.5 4c.7.3 1.6.2 1.9-.1.4-.3-.2-.6-1.3-.5-1.1 0-1.4.3-.6.6m72.2 7.4c0 .5.5.7 1 .4.6-.3 1-.8 1-1.1 0-.2-.4-.4-1-.4-.5 0-1 .5-1 1.1m163.9 3.6c-1.3 1.6-1.2 1.7.4.4s2.1-2.1 1.3-2.1c-.2 0-1 .8-1.7 1.7m-342.1 3c.6.2 1.8.2 2.5 0 .6-.3.1-.5-1.3-.5s-1.9.2-1.2.5m219 10c.7.3 1.6.2 1.9-.1.4-.3-.2-.6-1.3-.5-1.1 0-1.4.3-.6.6m-238.7 21.9c0 1.1.3 1.4.6.6.3-.7.2-1.6-.1-1.9-.3-.4-.6.2-.5 1.3m98.8 14.1c-1.3 1.6-1.2 1.7.4.4.9-.7 1.7-1.5 1.7-1.7 0-.8-.8-.3-2.1 1.3m-90.1 14c.6.2 1.8.2 2.5 0 .6-.3.1-.5-1.3-.5s-1.9.2-1.2.5m354.5 12c.9.2 2.3.2 3 0 .6-.3-.1-.5-1.8-.5-1.6 0-2.2.2-1.2.5m5.5 0c.7.3 1.6.2 1.9-.1.4-.3-.2-.6-1.3-.5-1.1 0-1.4.3-.6.6m-402 6c.6.2 1.8.2 2.5 0 .6-.3.1-.5-1.3-.5s-1.9.2-1.2.5m307.3 9.9c0 1.1.3 1.4.6.6.3-.7.2-1.6-.1-1.9-.3-.4-.6.2-.5 1.3m-429.3 1.1c.7.3 1.6.2 1.9-.1.4-.3-.2-.6-1.3-.5-1.1 0-1.4.3-.6.6m9 0c.7.3 1.6.2 1.9-.1.4-.3-.2-.6-1.3-.5-1.1 0-1.4.3-.6.6m55.2-.3c0 .2.8 1 1.8 1.7 1.5 1.3 1.6 1.2.3-.4s-2.1-2.1-2.1-1.3m44 8.1c1.3 1.4 2.6 2.5 2.8 2.5.3 0-.5-1.1-1.8-2.5s-2.6-2.5-2.8-2.5c-.3 0 .5 1.1 1.8 2.5m165.2 7c0 1.6.2 2.2.5 1.2.2-.9.2-2.3 0-3-.3-.6-.5.1-.5 1.8M154.5 447c1 1.1 2 2 2.3 2s-.3-.9-1.3-2-2-2-2.3-2 .3.9 1.3 2m8.5 9.4c0 .2.8 1 1.8 1.7 1.5 1.3 1.6 1.2.3-.4s-2.1-2.1-2.1-1.3m-72.9 36.2c0 1.1.3 1.4.6.6.3-.7.2-1.6-.1-1.9-.3-.4-.6.2-.5 1.3m295.8 1.1c-1.3 1.6-1.2 1.7.4.4.9-.7 1.7-1.5 1.7-1.7 0-.8-.8-.3-2.1 1.3m-38 3c-1.3 1.6-1.2 1.7.4.4s2.1-2.1 1.3-2.1c-.2 0-1 .8-1.7 1.7m-331.8.9c0 1.1.3 1.4.6.6.3-.7.2-1.6-.1-1.9-.3-.4-.6.2-.5 1.3m159 0c0 1.1.3 1.4.6.6.3-.7.2-1.6-.1-1.9-.3-.4-.6.2-.5 1.3m306 4c0 1.1.3 1.4.6.6.3-.7.2-1.6-.1-1.9-.3-.4-.6.2-.5 1.3m-376.2 8.1c-1.3 1.6-1.2 1.7.4.4.9-.7 1.7-1.5 1.7-1.7 0-.8-.8-.3-2.1 1.3m134.9 12c.6.2 1.8.2 2.5 0 .6-.3.1-.5-1.3-.5s-1.9.2-1.2.5m210.8 16c-.6 1.4-.5 1.5.5.6.7-.7 1-1.5.7-1.8s-.9.2-1.2 1.2m-82.7 1c-1.3 1.6-1.2 1.7.4.4.9-.7 1.7-1.5 1.7-1.7 0-.8-.8-.3-2.1 1.3m-90.8 9.9c0 1.1.3 1.4.6.6.3-.7.2-1.6-.1-1.9-.3-.4-.6.2-.5 1.3M99.8 566.7c.6.2 1.8.2 2.5 0 .6-.3.1-.5-1.3-.5s-1.9.2-1.2.5m368.7 3.3c1 1.1 2 2 2.3 2s-.3-.9-1.3-2-2-2-2.3-2 .3.9 1.3 2m-186.4 1.6c0 1.1.3 1.4.6.6.3-.7.2-1.6-.1-1.9-.3-.4-.6.2-.5 1.3M74.8 582.7c.7.3 1.6.2 1.9-.1.4-.3-.2-.6-1.3-.5-1.1 0-1.4.3-.6.6"/><path fill="#BFBF80" fill-opacity=".3" d="M306.9 234.7c-1.3 1.6-1.2 1.7.4.4s2.1-2.1 1.3-2.1c-.2 0-1 .8-1.7 1.7m128.2 123.9c0 1.1.3 1.4.6.6.3-.7.2-1.6-.1-1.9-.3-.4-.6.2-.5 1.3m-216 24c0 1.1.3 1.4.6.6.3-.7.2-1.6-.1-1.9-.3-.4-.6.2-.5 1.3M102 432.4c0 .2.8 1 1.8 1.7 1.5 1.3 1.6 1.2.3-.4s-2.1-2.1-2.1-1.3m124.8 94.3c.6.2 1.8.2 2.5 0 .6-.3.1-.5-1.3-.5s-1.9.2-1.2.5m66.4 38.3c0 1.4.2 1.9.5 1.2.2-.6.2-1.8 0-2.5-.3-.6-.5-.1-.5 1.3"/><path fill="#BF8080" fill-opacity=".9" d="M76.1 180.6c0 1.1.3 1.4.6.6.3-.7.2-1.6-.1-1.9-.3-.4-.6.2-.5 1.3m238.7 110.1c.6.2 1.8.2 2.5 0 .6-.3.1-.5-1.3-.5s-1.9.2-1.2.5m89 30c.7.3 1.6.2 1.9-.1.4-.3-.2-.6-1.3-.5-1.1 0-1.4.3-.6.6m129.6 2.5-1.9 2.3 2.3-1.9c1.2-1.1 2.2-2.1 2.2-2.3 0-.8-.8-.2-2.6 1.9m-237.6 26.5c.7.3 1.6.2 1.9-.1.4-.3-.2-.6-1.3-.5-1.1 0-1.4.3-.6.6M236 409.4c0 .2.8 1 1.8 1.7 1.5 1.3 1.6 1.2.3-.4s-2.1-2.1-2.1-1.3m54.8 4.3c.6.2 1.8.2 2.5 0 .6-.3.1-.5-1.3-.5s-1.9.2-1.2.5m-251.5 21c.9.2 2.3.2 3 0 .6-.3-.1-.5-1.8-.5-1.6 0-2.2.2-1.2.5m418.9 49.8c0 1.6.2 2.2.5 1.2.2-.9.2-2.3 0-3-.3-.6-.5.1-.5 1.8m-144 8.5c0 1.4.2 1.9.5 1.2.2-.6.2-1.8 0-2.5-.3-.6-.5-.1-.5 1.3M22 531.9c0 .6.4 1.3 1 1.6s.7-.1.4-.9c-.7-1.8-1.4-2.1-1.4-.7m246-.5c0 .2.8 1 1.8 1.7 1.5 1.3 1.6 1.2.3-.4s-2.1-2.1-2.1-1.3m233.8 39.3c.6.2 1.8.2 2.5 0 .6-.3.1-.5-1.3-.5s-1.9.2-1.2.5"/><path fill="#BF8080" fill-opacity=".4" d="M402.8 182.7c.6.2 1.8.2 2.5 0 .6-.3.1-.5-1.3-.5s-1.9.2-1.2.5M266.1 369.6c0 1.1.3 1.4.6.6.3-.7.2-1.6-.1-1.9-.3-.4-.6.2-.5 1.3"/><path fill="#BF8040" d="M288.5 106c-.3.5-.1 1 .4 1 .6 0 1.1-.5 1.1-1 0-.6-.2-1-.4-1-.3 0-.8.4-1.1 1m59.5 10c0 .5.7 1 1.6 1 .8 0 1.2-.5.9-1-.3-.6-1-1-1.6-1-.5 0-.9.4-.9 1m-197.5 4c-.3.5-.2 1 .4 1 .5 0 1.3-.5 1.6-1 .3-.6.2-1-.4-1-.5 0-1.3.4-1.6 1m179.3 11.7c.7.3 1.6.2 1.9-.1.4-.3-.2-.6-1.3-.5-1.1 0-1.4.3-.6.6m7 3.3c1.2 1.1 2.4 2 2.8 2s-.1-.9-1.1-2-2.3-2-2.8-2c-.6 0-.1.9 1.1 2m-19.5 24c-1.3.5-2.3 1.1-2.3 1.3 0 .5 10.3-1.3 10.9-1.9.8-.8-6.4-.3-8.6.6m30.7 8.6c0 .8.6 1.4 1.3 1.4 1.8 0 6.7 2.4 6.7 3.2 0 .5.4.8.9.8s.8-.6.7-1.3c-.3-2.3-1.7-3.6-3.1-3-.8.3-1.5.1-1.5-.5 0-.5-1.1-1.2-2.5-1.4-1.7-.4-2.5-.1-2.5.8M275.5 178c-.3.5-.2 1 .4 1 .5 0 1.3-.5 1.6-1 .3-.6.2-1-.4-1-.5 0-1.3.4-1.6 1m59.8.7c.9.2 2.3.2 3 0 .6-.3-.1-.5-1.8-.5-1.6 0-2.2.2-1.2.5m87.5 5c.7.3 1.6.2 1.9-.1.4-.3-.2-.6-1.3-.5-1.1 0-1.4.3-.6.6M407 186c0 .5.9 1 2.1 1 1.1 0 1.7-.5 1.4-1-.3-.6-1.3-1-2.1-1s-1.4.4-1.4 1m-43.6 9.4c1.1.9 2.7 1.6 3.5 1.5 1.4 0 1.4-.1.1-.6-.8-.3-2.4-1-3.5-1.5-2-.9-2-.9-.1.6M182 208c0 .5.5 1 1 1 .6 0 1-.5 1-1 0-.6-.4-1-1-1-.5 0-1 .4-1 1m271.5 3.1c-1.1 1.6-.1 1.9 1.3.3.7-.8.8-1.4.3-1.4s-1.3.5-1.6 1.1m-369 .9c.3.5.8 1 1.1 1 .2 0 .4-.5.4-1 0-.6-.5-1-1.1-1-.5 0-.7.4-.4 1m175.5.1c0 .5.5.7 1 .4.6-.3 1-.8 1-1.1 0-.2-.4-.4-1-.4-.5 0-1 .5-1 1.1M110 216c0 .5.5 1 1 1 .6 0 1-.5 1-1 0-.6-.4-1-1-1-.5 0-1 .4-1 1m365.2 11.9c-1.1.7-1.1.9.2 1.4 1 .4 1.6.1 1.6-.8 0-1.7-.1-1.7-1.8-.6m-5.3 4.8c-.1.4-.1 1.1 0 1.5 0 .5-.3.8-.7.8s-.8 1-.9 2.2c-.1 1.3-1.2 3.1-2.4 4-2.1 1.7-2.1 1.8-.1 1.8 2.4 0 5.4-4.3 4.6-6.5-.4-1-.2-1.5.7-1.3 1.7.4 1.9-2.4.2-3-.7-.2-1.4 0-1.4.5M160 242c0 .5.5 1 1 1 .6 0 1-.5 1-1 0-.6-.4-1-1-1-.5 0-1 .4-1 1m214.5 0c.3.5.8 1 1.1 1 .2 0 .4-.5.4-1 0-.6-.5-1-1.1-1-.5 0-.7.4-.4 1m116 23c-1 1.6.7 3.1 2.3 2.1 1-.6 1-1-.2-2-1-.9-1.6-.9-2.1-.1m-156 17c.4.6 1.1.8 1.6.5 1.4-.9 1.1-1.5-.7-1.5-.8 0-1.2.5-.9 1m144 0c-.3.5-.1 1 .4 1 .6 0 1.1-.5 1.1-1 0-.6-.2-1-.4-1-.3 0-.8.4-1.1 1m-4 2c-.3.5.1 1 .9 1 .9 0 1.6-.5 1.6-1 0-.6-.4-1-.9-1-.6 0-1.3.4-1.6 1M183 305.9c0 .6.4 1.3 1 1.6s.7-.1.4-.9c-.7-1.8-1.4-2.1-1.4-.7m323 6.1c0 .5.5 1 1.1 1 .5 0 .7-.5.4-1-.3-.6-.8-1-1.1-1-.2 0-.4.4-.4 1m-334.2 1.7c.7.3 1.6.2 1.9-.1.4-.3-.2-.6-1.3-.5-1.1 0-1.4.3-.6.6m2.7 2.3c-.3.5.3 1 1.5 1s1.8-.5 1.5-1c-.3-.6-1-1-1.5-1s-1.2.4-1.5 1m408 7c-.3.5-.1 1 .4 1 .6 0 1.1-.5 1.1-1 0-.6-.2-1-.4-1-.3 0-.8.4-1.1 1m-288 1c-.3.5-.1 1 .4 1 .6 0 1.1-.5 1.1-1 0-.6-.2-1-.4-1-.3 0-.8.4-1.1 1m49.1.5c.4.8.8 1.5 1 1.5s.4-.7.4-1.5-.4-1.5-1-1.5c-.5 0-.7.7-.4 1.5m-183.8 2.2c.7.3 1.6.2 1.9-.1.4-.3-.2-.6-1.3-.5-1.1 0-1.4.3-.6.6m6 3c.7.3 1.6.2 1.9-.1.4-.3-.2-.6-1.3-.5-1.1 0-1.4.3-.6.6m366.9 2c-.4.3-.7 1.1-.7 1.7s.5.5 1.2-.2c.6-.6.9-1.4.7-1.7-.3-.3-.9-.2-1.2.2M544 342c0 .5.5 1 1.1 1 .5 0 .7-.5.4-1-.3-.6-.8-1-1.1-1-.2 0-.4.4-.4 1m-178.1 5.7c-1.3 1.7-1.3 1.7.6.3 1.1-.8 2.2-1.6 2.4-1.7q.3-.3-.6-.3c-.6 0-1.7.8-2.4 1.7m193.5 5.2c.4.5.1 1.2-.4 1.4-.6.3-.5.4.2.3 1.5-.3 2.3-2.6.8-2.6-.6 0-.9.4-.6.9M390 356c0 .5.5 1 1 1 .6 0 1-.5 1-1 0-.6-.4-1-1-1-.5 0-1 .4-1 1m-167.4 12.9c-.4.7-.5 1.5-.2 1.8.9.9 1.9-.4 1.4-1.8-.4-1.1-.6-1.1-1.2 0M368 370c0 .5.4 1 .9 1 .6 0 1.3-.5 1.6-1 .3-.6-.1-1-.9-1-.9 0-1.6.4-1.6 1m140.1.6c0 1.1.3 1.4.6.6.3-.7.2-1.6-.1-1.9-.3-.4-.6.2-.5 1.3m16.4 1.4c-.3.5-.1 1 .4 1 .6 0 1.1-.5 1.1-1 0-.6-.2-1-.4-1-.3 0-.8.4-1.1 1M434 388c0 .5.5 1 1 1 .6 0 1-.5 1-1 0-.6-.4-1-1-1-.5 0-1 .4-1 1m-198 24.4c0 .2.7.7 1.6 1 .8.3 1.2.2.9-.4-.6-1-2.5-1.4-2.5-.6M122 420c0 .5.7 1 1.6 1 .8 0 1.2-.5.9-1-.3-.6-1-1-1.6-1-.5 0-.9.4-.9 1m192.8 1.7c.7.3 1.6.2 1.9-.1.4-.3-.2-.6-1.3-.5-1.1 0-1.4.3-.6.6M126 426.1c0 .5.9.9 2 .9s2-.4 2-.8-.9-.8-2-.9-2 .2-2 .8m174 5.9c0 .5.7 1 1.5 1s1.5-.5 1.5-1c0-.6-.7-1-1.5-1s-1.5.4-1.5 1m-166 2c0 .5.7 1 1.5 1s1.5-.5 1.5-1c0-.6-.7-1-1.5-1s-1.5.4-1.5 1m416 2c0 .5.7 1 1.6 1 .8 0 1.2-.5.9-1-.3-.6-1-1-1.6-1-.5 0-.9.4-.9 1m-314 4c0 .5.5 1 1 1 .6 0 1 .7 1 1.7 0 .9.3 1.4.6 1 .8-.8-.5-4.7-1.7-4.7-.5 0-.9.4-.9 1m375.5 2c.3.5 1 1 1.6 1 .5 0 .9-.5.9-1 0-.6-.7-1-1.6-1-.8 0-1.2.4-.9 1m-229.2 1.5c0 .8.4 1.5.9 1.5.4 0 .8-.7.8-1.5s-.4-1.5-.8-1.5c-.5 0-.9.7-.9 1.5m157.8.1c0 1.1.3 1.4.6.6.3-.7.2-1.6-.1-1.9-.3-.4-.6.2-.5 1.3m-328.8 2.1c-1 .3-1 .8.1 1.9 1.9 1.8 2.6 1.8 2.6-.2 0-1.1.6-1.4 2.1-.9s1.9.4 1.5-.4c-.7-1.1-4.1-1.4-6.3-.4m44.7 6.4c0 .5.5.7 1 .4.6-.3 1-.8 1-1.1 0-.2-.4-.4-1-.4-.5 0-1 .5-1 1.1m326-.1c0 .6.7 1 1.5 1s1.5-.2 1.5-.4-.7-.6-1.5-1c-.8-.3-1.5-.1-1.5.4m-288 16c0 .5.5 1 1 1 .6 0 1-.5 1-1 0-.6-.4-1-1-1-.5 0-1 .4-1 1m-81.5 1c.3.5.8 1 1.1 1 .2 0 .4-.5.4-1 0-.6-.5-1-1.1-1-.5 0-.7.4-.4 1m72 5c-.3.6.1.7.9.4 1.8-.7 2.1-1.4.7-1.4-.6 0-1.3.4-1.6 1m25.5 7.9c0 1.1.5 2.3 1 2.6.6.3 1-.3 1-1.4s-.4-2.3-1-2.6c-.5-.3-1 .3-1 1.4m-48 .2c0 .5.5.7 1 .4.6-.3 1-.8 1-1.1 0-.2-.4-.4-1-.4-.5 0-1 .5-1 1.1m52 2.3c0 .8.4 1.7.9 2 1 .7 2.3-1.9 1.4-2.8-1.1-1.1-2.3-.6-2.3.8m56-.4c0 .5.5 1 1.1 1 .5 0 .7-.5.4-1-.3-.6-.8-1-1.1-1-.2 0-.4.4-.4 1m-61.4 5.7c-.6 1.4-.5 1.5.5.6.7-.7 1-1.5.7-1.8s-.9.2-1.2 1.2m151.5 4.9c0 1.1.3 1.4.6.6.3-.7.2-1.6-.1-1.9-.3-.4-.6.2-.5 1.3M378 498c0 .5.5 1 1 1 .6 0 1-.5 1-1 0-.6-.4-1-1-1-.5 0-1 .4-1 1m-4 2c0 .5.7 1 1.5 1s1.5-.5 1.5-1c0-.6-.7-1-1.5-1s-1.5.4-1.5 1m14 16.1c0 .5.5.7 1 .4.6-.3 1-.8 1-1.1 0-.2-.4-.4-1-.4-.5 0-1 .5-1 1.1m-54 1.9c0 .5.5 1 1 1 .6 0 1-.5 1-1 0-.6-.4-1-1-1-.5 0-1 .4-1 1m-82.5 8c-1.3.6-1.5.9-.5.9.8 0 2.2-.4 3-.9 1.8-1.2.2-1.2-2.5 0m58.5 4c0 .5.9 1 2.1 1 1.1 0 1.7-.5 1.4-1-.3-.6-1.3-1-2.1-1s-1.4.4-1.4 1m-271.5 2c.3.5.8 1 1.1 1 .2 0 .4-.5.4-1 0-.6-.5-1-1.1-1-.5 0-.7.4-.4 1M502 544c0 .5.5 1 1 1 .6 0 1-.5 1-1 0-.6-.4-1-1-1-.5 0-1 .4-1 1m-290.2.7c.7.3 1.6.2 1.9-.1.4-.3-.2-.6-1.3-.5-1.1 0-1.4.3-.6.6m182.7 1.3c-.3.5-.1 1 .4 1 .6 0 1.1-.5 1.1-1 0-.6-.2-1-.4-1-.3 0-.8.4-1.1 1m89.5 2c0 .5.5 1 1 1 .6 0 1-.5 1-1 0-.6-.4-1-1-1-.5 0-1 .4-1 1m-224 10c0 .5.5 1 1 1 .6 0 1-.5 1-1 0-.6-.4-1-1-1-.5 0-1 .4-1 1"/><path fill="#FFBFBF" fill-opacity=".1" d="M141.8 354.7c1.2.2 3 .2 4 0 .9-.3-.1-.5-2.3-.4-2.2 0-3 .2-1.7.4m-55 230c.7.3 1.6.2 1.9-.1.4-.3-.2-.6-1.3-.5-1.1 0-1.4.3-.6.6"/><path fill="#BFBF80" d="M352.5 493c.3.5.8 1 1.1 1 .2 0 .4-.5.4-1 0-.6-.5-1-1.1-1-.5 0-.7.4-.4 1"/></svg>